<svg width="84" height="84" viewBox="0 0 84 84" fill="none" xmlns="http://www.w3.org/2000/svg">
<rect x="0.16626" y="-0.00634766" width="83.1974" height="83.1974" rx="18.1994" fill="url(#paint0_linear_69_694)"/>
<g clip-path="url(#clip0_69_694)">
<path d="M38.8618 28.2759C39.6002 25.2323 43.9299 25.2323 44.6683 28.2759C44.7791 28.7331 44.9963 29.1578 45.3022 29.5152C45.6081 29.8726 45.9941 30.1528 46.4287 30.3329C46.8633 30.5129 47.3344 30.5878 47.8034 30.5515C48.2725 30.5151 48.7263 30.3685 49.128 30.1236C51.8025 28.4943 54.8652 31.5553 53.2359 34.2314C52.9913 34.633 52.845 35.0865 52.8087 35.5553C52.7724 36.024 52.8472 36.4947 53.0271 36.9291C53.2069 37.3635 53.4868 37.7493 53.8438 38.0552C54.2008 38.361 54.625 38.5783 55.0818 38.6894C58.1255 39.4278 58.1255 43.7576 55.0818 44.4959C54.6246 44.6067 54.2 44.8239 53.8425 45.1298C53.4851 45.4357 53.2049 45.8217 53.0249 46.2563C52.8448 46.691 52.7699 47.162 52.8063 47.6311C52.8426 48.1001 52.9892 48.554 53.2342 48.9557C54.8634 51.6301 51.8025 54.6928 49.1263 53.0635C48.7248 52.819 48.2712 52.6726 47.8025 52.6363C47.3337 52.6 46.863 52.6749 46.4286 52.8547C45.9943 53.0346 45.6085 53.3144 45.3026 53.6714C44.9967 54.0285 44.7794 54.4526 44.6683 54.9095C43.9299 57.9531 39.6002 57.9531 38.8618 54.9095C38.751 54.4522 38.5338 54.0276 38.2279 53.6702C37.922 53.3127 37.536 53.0326 37.1014 52.8525C36.6668 52.6724 36.1957 52.5975 35.7267 52.6339C35.2576 52.6703 34.8038 52.8169 34.4021 53.0618C31.7276 54.6911 28.6649 51.6301 30.2942 48.9539C30.5388 48.5524 30.6851 48.0988 30.7214 47.6301C30.7577 47.1614 30.6829 46.6907 30.503 46.2563C30.3231 45.8219 30.0433 45.4361 29.6863 45.1302C29.3293 44.8243 28.9051 44.607 28.4483 44.4959C25.4046 43.7576 25.4046 39.4278 28.4483 38.6894C28.9055 38.5787 29.3301 38.3615 29.6876 38.0556C30.045 37.7497 30.3251 37.3637 30.5052 36.929C30.6853 36.4944 30.7602 36.0234 30.7238 35.5543C30.6875 35.0852 30.5409 34.6314 30.2959 34.2297C28.6667 31.5553 31.7276 28.4926 34.4038 30.1218C36.1371 31.1757 38.3834 30.2432 38.8618 28.2759Z" stroke="#1E2246" stroke-width="2.59992" stroke-linecap="round" stroke-linejoin="round"/>
<path d="M41.765 46.792C44.6368 46.792 46.9649 44.464 46.9649 41.5922C46.9649 38.7204 44.6368 36.3923 41.765 36.3923C38.8932 36.3923 36.5652 38.7204 36.5652 41.5922C36.5652 44.464 38.8932 46.792 41.765 46.792Z" stroke="#1E2246" stroke-width="2.59992" stroke-linecap="round" stroke-linejoin="round"/>
</g>
<defs>
<linearGradient id="paint0_linear_69_694" x1="0.81624" y1="8.44339" x2="84.0137" y2="83.1911" gradientUnits="userSpaceOnUse">
<stop stop-color="#BBEBFB"/>
<stop offset="1" stop-color="#EFD5FF"/>
</linearGradient>
<clipPath id="clip0_69_694">
<rect width="41.5987" height="41.5987" fill="white" transform="translate(20.9656 20.793)"/>
</clipPath>
</defs>
</svg>
