<svg width="829" height="389" viewBox="0 0 829 389" fill="none" xmlns="http://www.w3.org/2000/svg">
<g filter="url(#filter0_d_45_218)">
<path d="M4 80C4 35.8172 39.8172 0 84 0H964V540H4V80Z" fill="#47706B"/>
</g>
<path d="M228.007 165.821V170.965H213.457V209H207.52V170.965H192.97V165.821H228.007ZM233.533 165.821H239.441V183.663H261.898V165.821H267.806V209H261.898V188.807H239.441V209H233.533V165.821ZM277.447 165.821H308.927V171.112H283.149V184.221H306.987V189.218H283.149V203.856H309.368V209H277.447V165.821ZM364.51 173.346H342.788V183.31H361.806V190.835H342.788V209H333.794V165.733H364.51V173.346ZM396.226 192.305V165.674H405.426V192.305C405.426 196.909 404.711 200.495 403.28 203.063C400.615 207.765 395.53 210.117 388.025 210.117C380.52 210.117 375.425 207.765 372.74 203.063C371.31 200.495 370.595 196.909 370.595 192.305V165.674H379.795V192.305C379.795 195.283 380.147 197.458 380.853 198.83C381.95 201.26 384.341 202.475 388.025 202.475C391.689 202.475 394.07 201.26 395.168 198.83C395.873 197.458 396.226 195.283 396.226 192.305ZM445.577 165.674V173.346H432.615V209H423.503V173.346H410.482V165.674H445.577ZM476.529 192.305V165.674H485.729V192.305C485.729 196.909 485.013 200.495 483.583 203.063C480.918 207.765 475.833 210.117 468.328 210.117C460.823 210.117 455.728 207.765 453.043 203.063C451.613 200.495 450.897 196.909 450.897 192.305V165.674H460.098V192.305C460.098 195.283 460.45 197.458 461.156 198.83C462.253 201.26 464.644 202.475 468.328 202.475C471.992 202.475 474.373 201.26 475.47 198.83C476.176 197.458 476.529 195.283 476.529 192.305ZM512.8 192.011H503.453V209H494.606V165.674H515.857C518.894 165.733 521.226 166.105 522.853 166.791C524.499 167.477 525.89 168.486 527.027 169.819C527.967 170.916 528.712 172.131 529.26 173.463C529.809 174.796 530.083 176.314 530.083 178.019C530.083 180.077 529.564 182.105 528.526 184.104C527.487 186.083 525.772 187.484 523.382 188.307C525.38 189.11 526.791 190.257 527.614 191.746C528.457 193.216 528.878 195.469 528.878 198.507V201.416C528.878 203.396 528.957 204.738 529.113 205.443C529.349 206.56 529.897 207.383 530.759 207.912V209H520.795C520.521 208.04 520.325 207.266 520.207 206.678C519.972 205.463 519.845 204.219 519.825 202.945L519.766 198.918C519.727 196.155 519.218 194.313 518.238 193.392C517.278 192.471 515.465 192.011 512.8 192.011ZM518.297 184.133C520.099 183.31 521.001 181.684 521.001 179.254C521.001 176.628 520.129 174.864 518.385 173.963C517.405 173.454 515.935 173.199 513.976 173.199H503.453V184.839H513.711C515.749 184.839 517.278 184.603 518.297 184.133ZM568.06 190.071H547.014V201.211H570.999V209H538.167V165.674H569.941V173.346H547.014V182.546H568.06V190.071ZM197.908 234.821H203.816V278H197.908V234.821ZM217.161 264.068C217.298 266.517 217.876 268.506 218.895 270.034C220.835 272.895 224.254 274.326 229.153 274.326C231.348 274.326 233.347 274.012 235.15 273.385C238.638 272.17 240.382 269.995 240.382 266.86C240.382 264.508 239.647 262.833 238.177 261.834C236.688 260.854 234.356 260.001 231.181 259.276L225.332 257.954C221.511 257.091 218.807 256.141 217.22 255.103C214.476 253.3 213.104 250.605 213.104 247.019C213.104 243.139 214.447 239.955 217.131 237.466C219.816 234.978 223.618 233.733 228.536 233.733C233.063 233.733 236.903 234.831 240.058 237.026C243.233 239.201 244.82 242.689 244.82 247.49H239.323C239.03 245.177 238.402 243.404 237.442 242.169C235.659 239.916 232.632 238.789 228.36 238.789C224.911 238.789 222.432 239.514 220.923 240.964C219.414 242.414 218.66 244.1 218.66 246.02C218.66 248.136 219.542 249.684 221.305 250.664C222.461 251.291 225.077 252.075 229.153 253.016L235.208 254.397C238.128 255.063 240.382 255.975 241.969 257.131C244.712 259.149 246.084 262.079 246.084 265.919C246.084 270.701 244.34 274.12 240.852 276.178C237.383 278.235 233.347 279.264 228.742 279.264C223.373 279.264 219.169 277.892 216.132 275.149C213.095 272.425 211.605 268.731 211.664 264.068H217.161ZM304.165 234.674H314.424L294.172 261.716L290.733 278H281.679L285.118 261.716L275.889 234.674H286.559L291.526 253.545L304.165 234.674ZM352.165 238.407C355.692 242.385 356.613 248.342 354.928 256.278C353.262 264.058 349.804 270.015 344.552 274.149C340.574 277.52 335.489 279.205 329.297 279.205C323.105 279.205 318.725 277.52 316.158 274.149C312.65 270.015 311.729 264.058 313.395 256.278C315.08 248.342 318.539 242.385 323.771 238.407C327.749 235.037 332.834 233.351 339.026 233.351C345.218 233.351 349.598 235.037 352.165 238.407ZM337.409 241.023C333.823 241.023 330.678 242.346 327.974 244.991C325.289 247.637 323.428 251.399 322.389 256.278C321.351 261.158 321.615 264.92 323.183 267.565C324.751 270.211 327.327 271.533 330.913 271.533C334.499 271.533 337.625 270.211 340.29 267.565C342.975 264.92 344.836 261.158 345.875 256.278C346.894 251.419 346.629 247.666 345.081 245.021C343.553 242.356 340.995 241.023 337.409 241.023ZM401.281 234.674L395.608 261.305C394.629 265.909 393.149 269.495 391.17 272.063C387.506 276.765 381.921 279.117 374.416 279.117C366.911 279.117 362.315 276.765 360.63 272.063C359.748 269.495 359.797 265.909 360.777 261.305L366.45 234.674H375.65L369.977 261.305C369.35 264.283 369.243 266.458 369.654 267.83C370.242 270.26 372.378 271.475 376.062 271.475C379.726 271.475 382.362 270.26 383.969 267.83C384.968 266.458 385.781 264.283 386.408 261.305L392.081 234.674H401.281ZM427.03 275.678C427.05 274.463 427.187 273.219 427.442 271.945L428.235 267.918C428.784 265.155 428.666 263.313 427.882 262.392C427.118 261.471 425.404 261.011 422.739 261.011H413.391L409.805 278H400.958L410.158 234.674H431.41C434.427 234.733 436.681 235.105 438.17 235.791C439.659 236.477 440.835 237.486 441.697 238.819C442.403 239.916 442.883 241.131 443.138 242.463C443.412 243.796 443.373 245.314 443.02 247.019C442.569 249.077 441.609 251.105 440.14 253.104C438.689 255.083 436.681 256.484 434.114 257.307C435.936 258.11 437.102 259.257 437.612 260.746C438.141 262.216 438.082 264.469 437.435 267.507L436.818 270.416C436.407 272.396 436.201 273.738 436.201 274.443C436.201 275.56 436.573 276.383 437.318 276.912L437.112 278H427.148C427.069 277.04 427.03 276.266 427.03 275.678ZM427.912 242.199H417.389L414.92 253.839H425.178C427.216 253.839 428.794 253.603 429.911 253.133C431.89 252.31 433.144 250.684 433.673 248.254C434.222 245.628 433.722 243.864 432.174 242.963C431.292 242.454 429.871 242.199 427.912 242.199ZM464.565 251.546L471.649 253.339C474.745 254.123 476.989 255.171 478.38 256.484C480.536 258.522 481.202 261.471 480.379 265.331C479.537 269.29 477.322 272.582 473.736 275.208C470.15 277.814 465.594 279.117 460.068 279.117C454.425 279.117 450.261 277.833 447.576 275.266C444.891 272.68 444.029 269.133 444.989 264.626H453.631C453.494 266.605 453.719 268.085 454.307 269.064C455.404 270.848 457.736 271.739 461.303 271.739C463.439 271.739 465.222 271.504 466.652 271.034C469.376 270.132 470.993 268.457 471.502 266.007C471.816 264.577 471.424 263.47 470.327 262.686C469.249 261.922 467.426 261.246 464.859 260.658L460.48 259.629C456.188 258.61 453.308 257.503 451.838 256.308C449.349 254.309 448.556 251.183 449.457 246.931C450.28 243.051 452.377 239.828 455.747 237.261C459.118 234.694 463.537 233.41 469.004 233.41C473.57 233.41 477.205 234.625 479.909 237.055C482.613 239.465 483.554 242.973 482.731 247.578H474.03C474.442 244.972 473.707 243.12 471.826 242.022C470.572 241.297 468.896 240.935 466.799 240.935C464.467 240.935 462.498 241.405 460.891 242.346C459.304 243.286 458.334 244.599 457.981 246.284C457.648 247.833 458.089 248.989 459.304 249.753C460.068 250.262 461.822 250.86 464.565 251.546Z" fill="white"/>
<path d="M776.695 228.474L768.615 227.441L768.751 226.378L774.776 227.148L769.094 223.692L769.19 222.945L775.572 221.02L769.535 220.248L769.671 219.185L777.751 220.218L777.605 221.363L770.543 223.498L776.84 227.341L776.695 228.474Z" fill="white"/>
<path d="M774.871 235.558L772.243 234.77L771.385 237.635L770.539 237.381L771.398 234.517L768.691 233.706L767.732 236.908L766.886 236.655L768.153 232.426L776.024 234.785L774.757 239.014L773.911 238.76L774.871 235.558Z" fill="white"/>
<path d="M771.221 249.573C770.848 250.386 770.373 251.018 769.794 251.47C769.22 251.931 768.579 252.19 767.872 252.245C767.161 252.308 766.424 252.164 765.66 251.814C764.897 251.464 764.307 251 763.891 250.42C763.479 249.851 763.26 249.198 763.235 248.462C763.214 247.735 763.39 246.966 763.763 246.153L764.828 243.831L772.286 247.251L771.221 249.573ZM764.566 246.521C764.124 247.484 764.04 248.334 764.315 249.073C764.596 249.815 765.197 250.397 766.117 250.819C767.044 251.244 767.886 251.32 768.642 251.045C769.395 250.777 769.991 250.165 770.429 249.21L771.048 247.861L765.184 245.172L764.566 246.521Z" fill="white"/>
<path d="M764.704 262.676L757.931 258.046L758.535 257.161L765.309 261.792L764.704 262.676Z" fill="white"/>
<path d="M751.174 269.618L753.677 267.06L752.833 265.313L753.624 264.505L757.38 272.33L756.516 273.214L748.618 269.621L749.409 268.813L751.174 269.618ZM752.011 270.008L756.01 271.846L754.085 267.888L752.011 270.008Z" fill="white"/>
<path d="M742.655 285.891C741.902 286.374 741.16 286.65 740.429 286.717C739.697 286.796 739.018 286.667 738.392 286.332C737.76 286.001 737.217 285.482 736.764 284.775C736.311 284.068 736.065 283.359 736.028 282.646C735.988 281.944 736.157 281.277 736.533 280.644C736.908 280.021 737.472 279.468 738.225 278.985L740.375 277.606L744.805 284.512L742.655 285.891ZM738.702 279.728C737.81 280.3 737.28 280.971 737.112 281.741C736.948 282.518 737.139 283.332 737.686 284.184C738.236 285.043 738.904 285.561 739.689 285.738C740.467 285.919 741.299 285.726 742.184 285.158L743.433 284.357L739.95 278.928L738.702 279.728Z" fill="white"/>
<path d="M732.333 291.47L731.255 288.948L728.505 290.123L728.158 289.311L730.908 288.136L729.798 285.538L726.723 286.852L726.376 286.04L730.436 284.305L733.665 291.861L729.605 293.596L729.258 292.784L732.333 291.47Z" fill="white"/>
<path d="M712.039 291.182L713.077 290.918L718.865 296.185L717.252 289.854L718.29 289.59L720.318 297.552L719.28 297.816L713.495 292.56L715.105 298.88L714.067 299.144L712.039 291.182Z" fill="white"/>
<path d="M703.883 301.064L703.786 300.199L706.008 299.949L705.19 292.661L706.255 292.542L707.073 299.83L709.307 299.579L709.404 300.445L703.883 301.064Z" fill="white"/>
<path d="M692.255 295.332L695.834 295.373L696.514 293.556L697.644 293.569L694.583 301.692L693.347 301.678L690.487 293.486L691.617 293.5L692.255 295.332ZM692.551 296.206L693.986 300.367L695.518 296.241L692.551 296.206Z" fill="white"/>
<path d="M683.667 294.433L680.821 294.047L680.938 293.184L684.846 293.714L683.743 301.844L682.682 301.7L683.667 294.433Z" fill="white"/>
<path d="M670.616 297.867L671.512 295.275L668.686 294.298L668.974 293.464L671.8 294.44L672.722 291.77L669.563 290.678L669.851 289.844L674.023 291.285L671.34 299.051L667.168 297.61L667.456 296.775L670.616 297.867Z" fill="white"/>
<path d="M658.698 285.231L659.638 285.745L660.284 293.544L663.418 287.812L664.358 288.326L660.416 295.535L659.476 295.021L658.825 287.232L655.696 292.954L654.756 292.44L658.698 285.231Z" fill="white"/>
<path d="M643.423 282.465C643.292 282.979 643.309 283.473 643.475 283.948C643.636 284.43 643.936 284.854 644.377 285.22C644.817 285.587 645.3 285.816 645.827 285.907C646.342 286 646.861 285.941 647.382 285.732C647.892 285.524 648.354 285.173 648.765 284.678C649.177 284.184 649.439 283.667 649.552 283.127C649.658 282.582 649.622 282.062 649.443 281.566C649.253 281.07 648.938 280.639 648.498 280.273C647.883 279.76 647.223 279.522 646.519 279.559C645.814 279.595 645.168 279.899 644.579 280.471L647.093 282.565L646.536 283.235L643.144 280.41L643.671 279.776C644.152 279.298 644.711 278.957 645.35 278.754C645.984 278.557 646.633 278.52 647.296 278.644C647.954 278.773 648.561 279.069 649.115 279.531C649.7 280.018 650.121 280.598 650.377 281.272C650.629 281.951 650.693 282.653 650.569 283.377C650.44 284.097 650.119 284.764 649.607 285.379C649.094 285.994 648.496 286.43 647.812 286.688C647.117 286.946 646.415 287.01 645.706 286.879C644.993 286.755 644.344 286.449 643.759 285.962C643.089 285.404 642.637 284.746 642.4 283.988C642.158 283.224 642.17 282.443 642.438 281.644L643.423 282.465Z" fill="white"/>
<path d="M633.842 277.151L639.727 271.434L640.473 272.203L634.588 277.919L633.842 277.151Z" fill="white"/>
<path d="M632.906 263.698L633.533 264.567L630.757 271.884L636.055 268.06L636.682 268.929L630.019 273.738L629.392 272.869L632.159 265.559L626.871 269.376L626.244 268.507L632.906 263.698Z" fill="white"/>
<path d="M621.534 260.16L623.969 258.897L622.593 256.243L623.377 255.837L624.753 258.491L627.261 257.191L625.723 254.223L626.507 253.817L628.538 257.736L621.243 261.517L619.212 257.598L619.996 257.192L621.534 260.16Z" fill="white"/>
<path d="M616.599 250.474L619.178 249.539L618.159 246.728L618.989 246.428L620.008 249.239L622.664 248.276L621.525 245.133L622.355 244.832L623.859 248.982L616.134 251.782L614.63 247.632L615.46 247.331L616.599 250.474Z" fill="white"/>
<path d="M619.356 235.326L616.446 237.896L616.698 239.166L619.989 238.512L620.198 239.563L612.15 241.162L611.634 238.564C611.513 237.956 611.516 237.423 611.641 236.966C611.764 236.502 611.983 236.13 612.296 235.852C612.608 235.574 612.992 235.39 613.446 235.3C614 235.19 614.521 235.254 615.009 235.493C615.495 235.725 615.87 236.146 616.136 236.758L619.106 234.067L619.356 235.326ZM615.856 239.334L615.548 237.786C615.435 237.217 615.212 236.817 614.878 236.587C614.537 236.359 614.131 236.292 613.662 236.385C613.184 236.48 612.843 236.696 612.638 237.032C612.431 237.362 612.385 237.815 612.5 238.392L612.807 239.939L615.856 239.334Z" fill="white"/>
<path d="M609.717 227.714L617.877 226.862L617.988 227.927L609.828 228.78L609.717 227.714Z" fill="white"/>
<path d="M617.301 216.448L617.255 217.518L610.545 221.545L617.072 221.822L617.027 222.893L608.818 222.544L608.863 221.474L615.561 217.446L609.046 217.169L609.091 216.099L617.301 216.448Z" fill="white"/>
<path d="M613.015 201.436C612.496 201.544 612.06 201.778 611.706 202.136C611.345 202.493 611.097 202.949 610.962 203.506C610.827 204.063 610.835 204.598 610.985 205.11C611.129 205.614 611.41 206.054 611.828 206.429C612.239 206.796 612.758 207.055 613.383 207.207C614.009 207.358 614.588 207.366 615.122 207.229C615.658 207.084 616.109 206.822 616.476 206.443C616.837 206.054 617.085 205.581 617.22 205.024C617.408 204.247 617.331 203.549 616.988 202.933C616.645 202.317 616.087 201.871 615.314 201.594L614.543 204.775L613.696 204.569L614.737 200.279L615.538 200.474C616.179 200.694 616.731 201.046 617.195 201.53C617.652 202.012 617.971 202.578 618.152 203.228C618.326 203.876 618.328 204.55 618.158 205.252C617.978 205.992 617.643 206.625 617.152 207.152C616.653 207.677 616.051 208.044 615.346 208.252C614.643 208.453 613.903 208.459 613.125 208.27C612.347 208.082 611.692 207.737 611.159 207.236C610.621 206.726 610.254 206.124 610.059 205.431C609.856 204.736 609.845 204.018 610.024 203.278C610.23 202.432 610.621 201.735 611.197 201.189C611.776 200.635 612.483 200.302 613.317 200.189L613.015 201.436Z" fill="white"/>
<path d="M617.347 181.186L618.127 181.576L617.127 183.576L623.687 186.854L623.208 187.813L616.648 184.534L615.643 186.546L614.864 186.156L617.347 181.186Z" fill="white"/>
<path d="M621.518 174.955L623.788 176.494L625.466 174.02L626.197 174.515L624.518 176.99L626.856 178.576L628.733 175.809L629.464 176.305L626.986 179.958L620.186 175.346L622.664 171.692L623.394 172.188L621.518 174.955Z" fill="white"/>
<path d="M629.061 168.696C628.489 168.137 628.102 167.505 627.9 166.803C627.693 166.095 627.677 165.393 627.852 164.697C628.033 163.996 628.39 163.373 628.922 162.829C629.548 162.19 630.248 161.783 631.023 161.608C631.798 161.433 632.576 161.513 633.357 161.849L632.459 162.766C631.947 162.583 631.444 162.552 630.952 162.674C630.465 162.79 630.012 163.062 629.595 163.488C629.195 163.897 628.931 164.358 628.803 164.87C628.675 165.382 628.698 165.903 628.87 166.434C629.037 166.96 629.356 167.453 629.827 167.914C630.292 168.369 630.792 168.678 631.327 168.838C631.856 168.993 632.375 169.002 632.884 168.863C633.393 168.724 633.848 168.45 634.248 168.041C634.665 167.614 634.93 167.159 635.041 166.675C635.152 166.18 635.11 165.678 634.916 165.17L635.814 164.253C636.16 165.02 636.255 165.793 636.097 166.572C635.933 167.345 635.539 168.051 634.913 168.691C634.381 169.235 633.769 169.608 633.077 169.81C632.386 170 631.686 170.002 630.98 169.816C630.273 169.629 629.633 169.256 629.061 168.696Z" fill="white"/>
<path d="M642.955 150.042L647.684 156.747L646.809 157.364L644.665 154.325L641.25 156.733L643.394 159.773L642.519 160.39L637.79 153.685L638.665 153.068L640.741 156.012L644.156 153.603L642.08 150.66L642.955 150.042Z" fill="white"/>
<path d="M659.644 149.386L658.67 149.833L652.031 145.69L654.754 151.628L653.78 152.075L650.355 144.606L651.329 144.16L657.964 148.292L655.245 142.364L656.219 141.917L659.644 149.386Z" fill="white"/>
<path d="M670.04 145.043C669.299 145.217 668.582 145.204 667.89 145.003C667.197 144.795 666.598 144.424 666.093 143.889C665.595 143.345 665.254 142.684 665.072 141.904C664.889 141.125 664.9 140.385 665.107 139.683C665.319 138.973 665.69 138.374 666.221 137.886C666.749 137.392 667.384 137.057 668.126 136.883C668.874 136.708 669.595 136.724 670.289 136.932C670.981 137.132 671.575 137.501 672.072 138.037C672.569 138.574 672.909 139.235 673.094 140.022C673.278 140.809 673.268 141.553 673.061 142.255C672.855 142.956 672.488 143.554 671.959 144.049C671.428 144.536 670.789 144.867 670.04 145.043ZM669.827 144.138C670.385 144.007 670.855 143.76 671.237 143.396C671.627 143.03 671.892 142.577 672.031 142.037C672.178 141.495 672.177 140.906 672.028 140.272C671.877 139.63 671.617 139.103 671.246 138.69C670.881 138.268 670.446 137.979 669.942 137.823C669.438 137.668 668.903 137.656 668.338 137.789C667.773 137.921 667.299 138.17 666.917 138.533C666.534 138.897 666.27 139.35 666.123 139.892C665.982 140.425 665.987 141.012 666.137 141.654C666.286 142.288 666.543 142.817 666.908 143.239C667.281 143.659 667.719 143.947 668.223 144.103C668.735 144.257 669.27 144.269 669.827 144.138Z" fill="white"/>
<path d="M682.27 141.4L685.13 141.135L685.21 142.002L681.284 142.367L680.525 134.197L681.592 134.098L682.27 141.4Z" fill="white"/>
<path d="M693.751 141.427C692.993 141.363 692.316 141.128 691.72 140.723C691.125 140.31 690.671 139.771 690.357 139.107C690.052 138.435 689.933 137.7 690.001 136.903C690.069 136.105 690.31 135.405 690.723 134.802C691.145 134.192 691.684 133.738 692.34 133.439C692.996 133.133 693.703 133.012 694.462 133.076C695.228 133.141 695.909 133.38 696.504 133.793C697.099 134.198 697.55 134.733 697.856 135.397C698.162 136.061 698.28 136.796 698.212 137.601C698.143 138.406 697.902 139.11 697.489 139.713C697.075 140.316 696.54 140.771 695.884 141.077C695.229 141.376 694.518 141.493 693.751 141.427ZM693.83 140.501C694.401 140.549 694.924 140.46 695.401 140.233C695.885 140.006 696.277 139.657 696.576 139.187C696.884 138.717 697.066 138.157 697.121 137.508C697.177 136.851 697.092 136.269 696.868 135.762C696.652 135.247 696.328 134.838 695.897 134.533C695.466 134.229 694.961 134.052 694.383 134.003C693.804 133.954 693.277 134.043 692.801 134.27C692.325 134.497 691.933 134.846 691.625 135.316C691.326 135.779 691.148 136.339 691.092 136.995C691.037 137.644 691.117 138.226 691.334 138.741C691.557 139.256 691.885 139.666 692.316 139.97C692.755 140.275 693.259 140.452 693.83 140.501Z" fill="white"/>
<path d="M712.802 138.021C712.717 137.497 712.504 137.051 712.162 136.682C711.823 136.305 711.378 136.036 710.828 135.876C710.278 135.716 709.743 135.699 709.224 135.825C708.714 135.947 708.263 136.207 707.868 136.607C707.483 137.002 707.201 137.508 707.021 138.126C706.841 138.744 706.807 139.322 706.919 139.862C707.039 140.404 707.281 140.866 707.643 141.25C708.015 141.628 708.476 141.897 709.026 142.058C709.795 142.282 710.494 142.236 711.126 141.922C711.757 141.607 712.228 141.07 712.539 140.31L709.397 139.395L709.641 138.559L713.879 139.794L713.649 140.585C713.4 141.215 713.023 141.751 712.518 142.193C712.016 142.626 711.436 142.919 710.778 143.071C710.123 143.215 709.449 143.186 708.756 142.984C708.025 142.771 707.408 142.408 706.904 141.893C706.402 141.371 706.063 140.753 705.887 140.039C705.718 139.328 705.746 138.588 705.97 137.82C706.194 137.051 706.568 136.412 707.092 135.903C707.627 135.388 708.244 135.049 708.946 134.886C709.65 134.715 710.367 134.736 711.098 134.949C711.934 135.193 712.612 135.615 713.132 136.216C713.659 136.819 713.96 137.541 714.034 138.38L712.802 138.021Z" fill="white"/>
<path d="M728.659 141.136L724.023 144.564L722.67 147.349L721.707 146.88L723.06 144.096L722.878 138.328L723.947 138.847L723.953 143.47L727.59 140.617L728.659 141.136Z" fill="white"/>
<path d="M742.149 148.731C742.838 149.301 743.326 149.923 743.613 150.599C743.911 151.273 743.996 151.959 743.867 152.656C743.744 153.359 743.415 154.034 742.88 154.681C742.345 155.329 741.744 155.779 741.077 156.031C740.421 156.283 739.733 156.326 739.015 156.16C738.308 155.993 737.61 155.624 736.921 155.054L734.952 153.426L740.18 147.103L742.149 148.731ZM737.483 154.374C738.3 155.049 739.1 155.349 739.885 155.275C740.674 155.194 741.391 154.764 742.036 153.984C742.687 153.198 742.976 152.404 742.906 151.602C742.842 150.806 742.404 150.072 741.594 149.402L740.451 148.457L736.34 153.429L737.483 154.374Z" fill="white"/>
<path d="M751.774 158.026L749.738 159.864L751.742 162.083L751.087 162.675L749.083 160.456L746.987 162.349L749.227 164.83L748.572 165.422L745.613 162.146L751.711 156.639L754.67 159.915L754.015 160.507L751.774 158.026Z" fill="white"/>
<path d="M753.913 171.677C753.612 171.226 753.42 170.769 753.337 170.306C753.265 169.844 753.302 169.419 753.447 169.029C753.599 168.635 753.859 168.311 754.227 168.056L754.861 169.005C754.563 169.251 754.379 169.563 754.31 169.939C754.251 170.318 754.37 170.729 754.666 171.173C754.95 171.597 755.276 171.861 755.646 171.963C756.027 172.067 756.384 172.008 756.717 171.786C756.978 171.611 757.142 171.398 757.21 171.145C757.277 170.893 757.281 170.631 757.222 170.359C757.163 170.087 757.061 169.735 756.915 169.304C756.731 168.776 756.607 168.335 756.542 167.982C756.48 167.636 756.508 167.283 756.626 166.921C756.754 166.562 757.03 166.241 757.454 165.957C757.826 165.709 758.219 165.584 758.633 165.581C759.046 165.579 759.445 165.695 759.828 165.93C760.216 166.171 760.557 166.514 760.854 166.958C761.281 167.597 761.469 168.226 761.42 168.844C761.375 169.469 761.105 169.984 760.611 170.389L759.958 169.41C760.197 169.203 760.334 168.914 760.368 168.541C760.409 168.165 760.297 167.777 760.031 167.379C759.783 167.007 759.482 166.769 759.13 166.665C758.784 166.556 758.438 166.617 758.092 166.848C757.844 167.014 757.687 167.218 757.622 167.459C757.561 167.707 757.556 167.961 757.606 168.22C757.667 168.481 757.77 168.832 757.914 169.274C758.09 169.807 758.208 170.252 758.267 170.609C758.333 170.962 758.304 171.321 758.18 171.687C758.062 172.048 757.788 172.373 757.358 172.66C757.025 172.882 756.653 173.004 756.241 173.023C755.83 173.043 755.417 172.941 755.004 172.717C754.59 172.493 754.226 172.146 753.913 171.677Z" fill="white"/>
<path d="M766.677 176.284L759.464 180.194L758.953 179.252L766.166 175.343L766.677 176.284Z" fill="white"/>
<path d="M769.427 187.432C769.803 187.059 770.043 186.627 770.145 186.134C770.254 185.638 770.214 185.12 770.025 184.579C769.836 184.038 769.539 183.594 769.134 183.245C768.74 182.9 768.265 182.684 767.71 182.595C767.165 182.512 766.589 182.576 765.982 182.788C765.374 183.001 764.884 183.309 764.51 183.715C764.139 184.127 763.902 184.592 763.801 185.11C763.709 185.632 763.758 186.164 763.947 186.705C764.211 187.46 764.655 188.004 765.278 188.335C765.901 188.665 766.611 188.737 767.41 188.549L766.33 185.46L767.152 185.172L768.61 189.339L767.832 189.611C767.174 189.775 766.519 189.779 765.866 189.625C765.221 189.468 764.646 189.167 764.14 188.72C763.642 188.27 763.274 187.705 763.036 187.023C762.785 186.305 762.722 185.591 762.848 184.882C762.982 184.17 763.288 183.535 763.766 182.977C764.247 182.427 764.865 182.019 765.62 181.755C766.376 181.491 767.113 181.424 767.833 181.555C768.562 181.691 769.197 181.997 769.737 182.473C770.285 182.946 770.685 183.542 770.936 184.261C771.224 185.083 771.274 185.88 771.087 186.652C770.902 187.432 770.49 188.096 769.85 188.643L769.427 187.432Z" fill="white"/>
<path d="M768.066 203.916L767.905 202.857L773.72 197.62L767.261 198.597L767.1 197.538L775.224 196.309L775.385 197.368L769.581 202.603L776.029 201.628L776.19 202.687L768.066 203.916Z" fill="white"/>
<g clip-path="url(#clip0_45_218)">
<path d="M713.226 237.226C709.275 241.177 704.241 243.867 698.761 244.957C693.281 246.047 687.601 245.488 682.439 243.35C677.277 241.211 672.865 237.591 669.761 232.945C666.657 228.299 665 222.837 665 217.25C665 211.663 666.657 206.201 669.761 201.555C672.865 196.909 677.277 193.289 682.439 191.15C687.601 189.012 693.281 188.453 698.761 189.543C704.241 190.633 709.275 193.323 713.226 197.274C718.524 202.572 721.5 209.758 721.5 217.25C721.5 224.742 718.524 231.928 713.226 237.226ZM674.106 198.107C670.32 201.893 667.742 206.717 666.697 211.968C665.653 217.22 666.189 222.663 668.238 227.61C670.287 232.557 673.757 236.786 678.209 239.76C682.661 242.735 687.895 244.323 693.25 244.323C698.604 244.323 703.839 242.735 708.291 239.76C712.743 236.786 716.213 232.557 718.262 227.61C720.311 222.663 720.847 217.22 719.803 211.968C718.758 206.717 716.18 201.893 712.393 198.107C707.316 193.029 700.43 190.177 693.25 190.177C686.07 190.177 679.184 193.029 674.106 198.107Z" fill="white"/>
<path d="M699.909 211.424L687.424 223.909C687.313 224.019 687.164 224.081 687.008 224.081C686.852 224.081 686.702 224.019 686.591 223.909C686.481 223.798 686.419 223.649 686.419 223.492C686.419 223.336 686.481 223.187 686.591 223.076L699.076 210.591C699.187 210.481 699.336 210.419 699.492 210.419C699.649 210.419 699.798 210.481 699.909 210.591C700.019 210.702 700.081 210.852 700.081 211.008C700.081 211.164 700.019 211.313 699.909 211.424Z" fill="white"/>
<path d="M699.909 223.909C699.798 224.019 699.649 224.081 699.492 224.081C699.336 224.081 699.187 224.019 699.076 223.909L686.591 211.424C686.481 211.313 686.419 211.164 686.419 211.008C686.419 210.852 686.481 210.702 686.591 210.591C686.702 210.481 686.852 210.419 687.008 210.419C687.164 210.419 687.313 210.481 687.424 210.591L699.909 223.076C700.019 223.187 700.081 223.336 700.081 223.492C700.081 223.649 700.019 223.798 699.909 223.909Z" fill="white"/>
</g>
<path d="M145.127 398.502H22.7645L22.7645 91.9366C22.7645 57.0076 50.2113 28.589 83.946 28.589C117.681 28.589 145.127 57.0076 145.127 91.9366L145.127 398.502Z" fill="#F2F2F2"/>
<path d="M23.7062 406.032C22.4581 406.031 21.2613 405.535 20.3789 404.652C19.4964 403.77 19.0004 402.573 18.9999 401.325L18.9999 86.4759C18.9999 69.3758 25.7929 52.9761 37.8844 40.8846C49.976 28.793 66.3757 22 83.4758 22C100.576 22 116.976 28.793 129.067 40.8846C141.159 52.9761 147.952 69.3758 147.952 86.4759L147.952 401.325C147.952 402.573 147.456 403.77 146.573 404.653C145.691 405.536 144.494 406.032 143.245 406.032C141.997 406.032 140.8 405.536 139.918 404.653C139.035 403.77 138.539 402.573 138.539 401.325L138.539 86.4759C138.539 71.8722 132.738 57.8666 122.411 47.5402C112.085 37.2138 98.0795 31.4125 83.4758 31.4125C68.8721 31.4125 54.8665 37.2138 44.5401 47.5402C34.2138 57.8666 28.4124 71.8722 28.4124 86.4759L28.4124 401.325C28.4119 402.573 27.916 403.77 27.0335 404.652C26.151 405.535 24.9542 406.031 23.7062 406.032Z" fill="#47706B"/>
<path d="M116.889 398.503L116.889 69.0631C116.889 68.8135 116.988 68.5741 117.165 68.3976C117.341 68.2211 117.581 68.1219 117.83 68.1219C118.08 68.1219 118.32 68.2211 118.496 68.3976C118.673 68.5741 118.772 68.8135 118.772 69.0631L118.772 398.503C118.772 398.753 118.673 398.992 118.496 399.169C118.32 399.345 118.08 399.445 117.83 399.445C117.581 399.445 117.341 399.345 117.165 399.169C116.988 398.992 116.889 398.753 116.889 398.503Z" fill="#CCCCCC"/>
<path d="M94.2989 398.503L94.2989 69.0631C94.2989 68.8135 94.3981 68.5741 94.5746 68.3976C94.7511 68.2211 94.9905 68.1219 95.2401 68.1219C95.4898 68.1219 95.7292 68.2211 95.9057 68.3976C96.0822 68.5741 96.1814 68.8135 96.1814 69.0631L96.1814 398.503C96.1814 398.753 96.0822 398.992 95.9057 399.169C95.7292 399.345 95.4898 399.445 95.2401 399.445C94.9905 399.445 94.7511 399.345 94.5746 399.169C94.3981 398.992 94.2989 398.753 94.2989 398.503Z" fill="#CCCCCC"/>
<path d="M71.7086 398.503L71.7086 69.0631C71.7086 68.8135 71.8077 68.5741 71.9843 68.3976C72.1608 68.2211 72.4002 68.1219 72.6498 68.1219C72.8994 68.1219 73.1388 68.2211 73.3154 68.3976C73.4919 68.5741 73.5911 68.8135 73.5911 69.0631L73.5911 398.503C73.5911 398.753 73.4919 398.992 73.3154 399.169C73.1388 399.345 72.8994 399.445 72.6498 399.445C72.4002 399.445 72.1608 399.345 71.9843 399.169C71.8077 398.992 71.7086 398.753 71.7086 398.503Z" fill="#CCCCCC"/>
<path d="M49.1194 398.503L49.1194 69.0631C49.1194 68.8135 49.2186 68.5741 49.3951 68.3976C49.5717 68.2211 49.8111 68.1219 50.0607 68.1219C50.3103 68.1219 50.5497 68.2211 50.7263 68.3976C50.9028 68.5741 51.002 68.8135 51.002 69.0631L51.002 398.503C51.002 398.753 50.9028 398.992 50.7263 399.169C50.5497 399.345 50.3103 399.445 50.0607 399.445C49.8111 399.445 49.5717 399.345 49.3951 399.169C49.2186 398.992 49.1194 398.753 49.1194 398.503Z" fill="#CCCCCC"/>
<defs>
<filter id="filter0_d_45_218" x="0" y="0" width="968" height="548" filterUnits="userSpaceOnUse" color-interpolation-filters="sRGB">
<feFlood flood-opacity="0" result="BackgroundImageFix"/>
<feColorMatrix in="SourceAlpha" type="matrix" values="0 0 0 0 0 0 0 0 0 0 0 0 0 0 0 0 0 0 127 0" result="hardAlpha"/>
<feOffset dy="4"/>
<feGaussianBlur stdDeviation="2"/>
<feComposite in2="hardAlpha" operator="out"/>
<feColorMatrix type="matrix" values="0 0 0 0 0 0 0 0 0 0 0 0 0 0 0 0 0 0 0.25 0"/>
<feBlend mode="normal" in2="BackgroundImageFix" result="effect1_dropShadow_45_218"/>
<feBlend mode="normal" in="SourceGraphic" in2="effect1_dropShadow_45_218" result="shape"/>
</filter>
<clipPath id="clip0_45_218">
<rect width="56.5" height="56.5" fill="white" transform="translate(653.298 217.25) rotate(-45)"/>
</clipPath>
</defs>
</svg>
