<svg width="584" height="555" viewBox="0 0 584 555" fill="none" xmlns="http://www.w3.org/2000/svg">
<ellipse cx="304.5" cy="521" rx="258.5" ry="34" fill="#D9D9D9"/>
<g clip-path="url(#clip0_82_141)">
<path d="M280.24 106.125C286.731 99.5198 295.4 97.5146 299.604 101.646C303.807 105.778 301.951 114.48 295.457 121.087C292.899 123.762 289.738 125.786 286.238 126.988L258.382 154.629L245.689 141.281L274.498 115.449C275.64 111.927 277.609 108.73 280.24 106.125Z" fill="#FFB6B6"/>
<path d="M191.153 83.3095L220.359 148.102L266.997 122.857L283.688 131.715C283.688 131.715 245.563 195.454 219.458 188.198C193.354 180.943 146.999 115.152 155.351 94.8465C163.703 74.5414 191.153 83.3095 191.153 83.3095Z" fill="#E6E6E6"/>
<path d="M326.54 119.883C319.76 113.575 317.519 104.963 321.534 100.648C325.55 96.3343 334.3 97.9517 341.081 104.263C343.825 106.747 345.934 109.852 347.231 113.319L375.621 140.411L362.624 153.462L336.016 125.369C332.465 124.323 329.215 122.442 326.54 119.883Z" fill="#A0616A"/>
<path d="M469.545 124.059L414.747 182.4C414.747 182.4 402.441 194.576 382.196 177.017C361.95 159.458 339.441 130.651 339.441 130.651L352.069 116.907L374.436 136.863C374.436 136.863 387.716 142.206 388.639 145.664C389.563 149.121 386.981 150.552 391.13 149.444C395.279 148.336 395.36 145.864 395.62 149.613C395.88 153.361 393.346 157.742 398.14 153.498C402.933 149.255 404.363 151.837 404.363 151.837L439.387 105.443C439.387 105.443 462.018 87.547 468.524 103.589C475.03 119.631 469.545 124.059 469.545 124.059Z" fill="#47706B"/>
<path d="M178.347 515.124L199.643 515.122L209.773 432.979L178.342 432.981L178.347 515.124Z" fill="#FFB6B6"/>
<path d="M251.309 514.641C251.973 515.758 252.322 519.362 252.322 520.661C252.322 524.653 249.086 527.889 245.094 527.889H179.143C176.42 527.889 174.212 525.681 174.212 522.958V520.212C174.212 520.212 170.95 511.96 177.667 501.788C177.667 501.788 186.015 509.753 198.489 497.278L202.168 490.614L228.796 510.088L243.556 511.905C246.785 512.303 249.648 511.843 251.309 514.641Z" fill="#2F2E41"/>
<path d="M423.793 136.057H476.569V58.0738H423.793V136.057Z" fill="#2F2E41"/>
<path d="M464.722 112.278L462.874 89.9429H438.299L432.851 113.607L464.722 112.278Z" fill="#A0616A"/>
<path opacity="0.1" d="M464.722 112.278L462.874 89.9429H438.299L432.851 113.607L464.722 112.278Z" fill="black"/>
<path d="M194.461 87.4674L194.892 58.744L177.179 47.7024L157.918 71.2623L194.461 87.4674Z" fill="#FFB6B6"/>
<path opacity="0.1" d="M194.461 87.4674L195.608 59.4597L177.179 47.7024L183.44 82.3632L194.461 87.4674Z" fill="black"/>
<path d="M446.717 97.0497C461.553 97.0497 473.579 85.0229 473.579 70.1871C473.579 55.3513 461.553 43.3245 446.717 43.3245C431.881 43.3245 419.854 55.3513 419.854 70.1871C419.854 85.0229 431.881 97.0497 446.717 97.0497Z" fill="#A0616A"/>
<path d="M439.941 41.9259C439.941 41.9259 439.941 30.898 450.181 33.2612C460.421 35.6243 463.572 39.5628 463.572 39.5628C463.572 39.5628 467.51 45.8644 473.812 46.6522C480.114 47.4399 485.628 65.5571 484.84 69.4956C484.052 73.4341 480.114 83.6743 485.628 88.4005C491.142 93.1268 499.019 100.216 496.655 107.305C494.292 114.395 487.203 132.512 487.203 132.512C487.203 132.512 506.976 135.402 505.361 147.742C505.361 147.742 495.868 140.389 483.264 140.389C470.661 140.389 472.237 117.524 472.237 117.524C472.237 117.524 471.449 103.367 469.086 99.4284C466.723 95.4899 469.873 73.4341 458.058 61.6186C446.242 49.803 439.941 41.9259 439.941 41.9259Z" fill="#2F2E41"/>
<path d="M443.092 39.5628C443.092 39.5628 428.125 42.7136 422.611 57.68C417.097 72.6464 419.882 75.4313 419.882 75.4313C419.882 75.4313 418.663 84.4434 411.972 87.6035C405.282 90.7636 410.796 104.155 410.796 104.155C410.796 104.155 409.22 117.546 387.952 122.272C366.684 126.998 414.623 163.241 414.623 163.241C414.623 163.241 411.176 146.136 433.232 145.348C455.288 144.56 428.913 104.155 428.913 104.155L426.55 78.1603C426.55 78.1603 431.276 48.2275 445.455 44.289C459.633 40.3504 443.092 39.5628 443.092 39.5628Z" fill="#2F2E41"/>
<path d="M194.517 67.6819C211.914 67.6819 226.018 53.5782 226.018 36.1803C226.018 18.7825 211.914 4.67871 194.517 4.67871C177.119 4.67871 163.015 18.7825 163.015 36.1803C163.015 53.5782 177.119 67.6819 194.517 67.6819Z" fill="#FFB6B6"/>
<path d="M237.478 277.401L208.133 477.091H171.316L176.211 363.103L178.788 303.167L171.316 274.638C171.316 274.638 167.909 268.297 165.039 260.61C161.804 251.935 159.248 241.535 163.042 236.604C164.437 234.786 168.066 233.44 172.998 232.438C176.011 231.823 179.518 231.343 183.304 230.971C205.077 228.817 236.047 230.162 236.047 230.162L236.834 256.144L237.271 270.652L237.478 277.401Z" fill="#2F2E41"/>
<path d="M57.094 483.308L75.8549 493.385L123.656 425.82L95.967 410.946L57.094 483.308Z" fill="#FFB6B6"/>
<path d="M121.597 517.415C121.652 518.712 120.254 522.053 119.64 523.197C117.75 526.714 113.368 528.033 109.852 526.143L51.7544 494.93C49.3555 493.641 48.4555 490.651 49.7444 488.252L51.044 485.834C51.044 485.834 52.0757 477.02 62.8068 471.239C62.8068 471.239 66.3915 482.206 83.2845 477.121L89.6791 472.991L103.919 502.749L116.061 511.335C118.718 513.214 121.457 514.164 121.597 517.415Z" fill="#2F2E41"/>
<path d="M237.271 270.651L221.696 301.879L176.211 363.103L101.331 463.9L68.9011 446.479L157.795 296.804L164.724 268.132C164.724 268.132 164.724 265.033 165.039 260.61C165.654 251.856 167.501 237.907 172.998 232.438C173.742 231.694 174.551 231.107 175.431 230.713C177.084 229.969 179.833 230.148 183.304 230.971C197.805 234.435 224.867 249.315 236.834 256.144L237.271 270.651Z" fill="#2F2E41"/>
<path d="M462.721 517.629L444.411 517.627L435.7 447L462.725 447.002L462.721 517.629Z" fill="#A0616A"/>
<path d="M399.987 517.214C399.417 518.174 399.116 521.273 399.116 522.39C399.116 525.822 401.899 528.604 405.331 528.604H462.037C464.378 528.604 466.276 526.706 466.276 524.365V522.004C466.276 522.004 469.082 514.908 463.306 506.163C463.306 506.163 456.128 513.011 445.402 502.285L442.239 496.555L419.344 513.299L406.654 514.861C403.877 515.203 401.415 514.808 399.987 517.214Z" fill="#2F2E41"/>
<path d="M534.855 496.051L517.928 503.034L482.935 441.069L507.917 430.762L534.855 496.051Z" fill="#A0616A"/>
<path d="M476.705 519.597C476.544 520.702 477.448 523.681 477.874 524.713C479.183 527.886 482.817 529.397 485.99 528.088L538.408 506.457C540.572 505.564 541.603 503.086 540.71 500.921L539.809 498.739C539.809 498.739 539.696 491.11 531.021 485.228C531.021 485.228 526.998 494.297 512.992 488.473L507.882 484.383L493.105 508.595L481.97 514.879C479.534 516.254 477.108 516.828 476.705 519.597Z" fill="#2F2E41"/>
<path d="M471.123 275.354L463.65 303.883L465.64 350.177L468.94 427.068L469.033 429.237L469.405 437.883L471.123 477.807H434.305L417.915 366.274L404.96 278.117L406.32 233.226L406.392 230.878C406.392 230.878 472.239 228.015 479.397 237.32C486.554 246.624 471.123 275.354 471.123 275.354Z" fill="#2F2E41"/>
<path d="M522.348 449.106L516.107 452.334L493.024 464.279L489.646 466.026L469.405 437.883L417.915 366.274L404.96 278.117L406.32 233.226C412.146 231.372 416.806 230.613 419.168 231.715C429.803 236.69 429.295 269.299 429.295 269.299L435.773 298.071L465.64 350.177L522.348 449.106Z" fill="#2F2E41"/>
<path d="M389.226 457.909C388.752 456.46 385.161 457.098 384.816 455.801C384.473 454.509 387.918 453.426 390.561 449.785C391.038 449.128 394.041 444.99 392.889 443.25C390.706 439.951 375.516 448.167 371.87 443.556C371.07 442.544 370.74 440.807 368.357 437.575C367.408 436.288 366.8 435.668 366.073 435.686C365.041 435.712 364.672 437.002 363.051 439.34C360.62 442.845 359.743 442.405 358.141 445.277C356.952 447.41 356.811 448.772 355.954 448.852C354.74 448.966 354.239 446.311 352.757 446.208C351.244 446.103 349.73 448.726 348.979 450.776C347.571 454.621 348.443 457.561 348.636 460.49C348.847 463.674 348.353 468.334 344.894 474.316L312.268 526.298C319.274 515.701 339.164 486.804 347.178 476.204C349.491 473.144 351.977 470.072 355.804 469.494C359.487 468.937 363.97 470.76 370.226 470.654C370.957 470.641 372.99 470.581 373.485 469.503C373.894 468.612 372.879 467.837 373.248 467C373.743 465.876 375.972 466.358 379.01 465.612C381.152 465.086 382.607 464.217 383.859 463.469C384.236 463.244 389.856 459.839 389.226 457.909Z" fill="#F2F2F2"/>
<path d="M303.771 470.046C302.922 469.86 302.2 471.807 301.464 471.602C300.73 471.398 301.193 469.394 300.168 467.046C299.984 466.623 298.819 463.955 297.633 464.018C295.384 464.138 295.033 473.964 291.718 474.423C290.991 474.524 290.043 474.184 287.769 474.421C286.864 474.516 286.384 474.635 286.183 474.997C285.898 475.511 286.425 476.065 287.104 477.535C288.123 479.739 287.654 480.043 288.602 481.658C289.305 482.857 289.933 483.319 289.725 483.763C289.431 484.391 287.983 483.871 287.505 484.569C287.017 485.281 287.868 486.781 288.657 487.741C290.138 489.542 291.833 489.962 293.326 490.712C294.949 491.528 297.094 493.114 299.032 496.538L315.131 527.55C311.952 521.053 303.508 502.953 300.618 495.962C299.783 493.944 298.993 491.837 299.813 489.792C300.603 487.824 302.791 486.149 304.544 483.048C304.749 482.686 305.306 481.671 304.919 481.117C304.6 480.659 303.927 480.934 303.622 480.511C303.214 479.943 304.094 478.989 304.604 477.282C304.964 476.079 304.957 475.114 304.951 474.284C304.949 474.034 304.9 470.293 303.771 470.046Z" fill="#F2F2F2"/>
<path d="M319.832 477.612L320.338 472.94L320.649 472.647C322.085 471.29 322.983 469.852 323.32 468.372C323.374 468.137 323.415 467.899 323.458 467.657C323.626 466.696 323.834 465.502 324.758 464.261C325.275 463.57 326.642 462.008 328.052 462.554C328.433 462.697 328.69 462.943 328.868 463.205C328.913 463.16 328.959 463.114 329.008 463.065C329.617 462.473 330.043 462.256 330.454 462.048C330.769 461.887 331.095 461.722 331.646 461.281C331.888 461.087 332.081 460.913 332.244 460.767C332.739 460.325 333.372 459.808 334.239 460.013C335.158 460.264 335.473 461.141 335.682 461.721C336.056 462.756 336.171 463.468 336.247 463.94C336.274 464.113 336.306 464.307 336.33 464.37C336.531 464.877 339.056 465.008 340.006 465.063C342.142 465.179 343.99 465.279 344.434 466.741C344.753 467.788 344.088 468.929 342.402 470.223C341.876 470.626 341.351 470.904 340.894 471.111C341.175 471.377 341.399 471.739 341.413 472.232C341.444 473.399 340.247 474.294 337.856 474.898C337.262 475.049 336.463 475.25 335.417 475.199C334.925 475.175 334.494 475.099 334.126 475.029C334.071 475.239 333.97 475.456 333.789 475.663C333.257 476.272 332.398 476.427 331.231 476.084C329.943 475.725 328.926 475.237 328.028 474.808C327.244 474.434 326.568 474.115 326 474.028C324.945 473.88 323.961 474.532 322.783 475.399L319.832 477.612Z" fill="#F2F2F2"/>
<path d="M328.254 451.001L323.607 451.697L323.244 451.471C321.567 450.426 319.948 449.922 318.432 449.971C318.19 449.979 317.95 449.999 317.704 450.02C316.733 450.101 315.525 450.202 314.09 449.623C313.291 449.299 311.433 448.372 311.603 446.87C311.645 446.465 311.818 446.154 312.026 445.915C311.971 445.884 311.915 445.851 311.855 445.816C311.128 445.377 310.81 445.019 310.504 444.675C310.269 444.411 310.026 444.138 309.46 443.716C309.212 443.532 308.994 443.388 308.812 443.268C308.259 442.901 307.598 442.42 307.576 441.53C307.586 440.577 308.354 440.05 308.862 439.7C309.769 439.077 310.428 438.785 310.866 438.592C311.026 438.521 311.206 438.441 311.261 438.402C311.7 438.079 311.186 435.603 310.998 434.67C310.569 432.575 310.197 430.762 311.499 429.961C312.43 429.388 313.702 429.741 315.382 431.044C315.905 431.45 316.307 431.888 316.623 432.278C316.809 431.938 317.103 431.629 317.576 431.491C318.697 431.165 319.866 432.096 321.056 434.255C321.354 434.791 321.751 435.513 321.967 436.538C322.068 437.02 322.105 437.457 322.13 437.83C322.346 437.83 322.583 437.872 322.829 437.995C323.553 438.355 323.921 439.147 323.884 440.363C323.864 441.7 323.65 442.808 323.463 443.785C323.3 444.638 323.163 445.373 323.222 445.944C323.347 447.003 324.227 447.789 325.365 448.708L328.254 451.001Z" fill="#F2F2F2"/>
<path d="M328.881 437.044L329.387 432.372L329.697 432.078C331.133 430.721 332.031 429.284 332.368 427.804C332.422 427.569 332.463 427.331 332.506 427.088C332.674 426.128 332.883 424.933 333.806 423.693C334.323 423.002 335.69 421.44 337.1 421.986C337.481 422.128 337.738 422.375 337.916 422.637C337.961 422.591 338.007 422.546 338.056 422.497C338.665 421.905 339.091 421.688 339.502 421.479C339.817 421.318 340.143 421.153 340.694 420.712C340.936 420.519 341.13 420.345 341.293 420.199C341.788 419.757 342.421 419.24 343.287 419.445C344.206 419.696 344.522 420.572 344.731 421.153C345.104 422.188 345.219 422.9 345.295 423.372C345.322 423.544 345.354 423.739 345.378 423.802C345.579 424.309 348.104 424.44 349.054 424.495C351.19 424.611 353.038 424.711 353.482 426.173C353.801 427.219 353.137 428.36 351.45 429.655C350.925 430.057 350.4 430.335 349.942 430.543C350.223 430.809 350.448 431.171 350.461 431.664C350.492 432.83 349.296 433.726 346.905 434.329C346.311 434.481 345.512 434.682 344.466 434.631C343.973 434.606 343.542 434.531 343.174 434.461C343.119 434.67 343.019 434.888 342.837 435.095C342.305 435.704 341.446 435.859 340.279 435.515C338.992 435.157 337.974 434.669 337.076 434.24C336.292 433.866 335.616 433.547 335.049 433.459C333.993 433.312 333.009 433.963 331.832 434.83L328.881 437.044Z" fill="#F2F2F2"/>
<path d="M313.81 526.564L312.988 525.752L311.846 525.631C311.852 525.524 311.844 525.273 311.836 524.88C311.792 522.731 311.655 516.19 312.566 506.139C313.202 499.123 314.265 492.001 315.725 484.968C317.188 477.924 318.706 472.682 319.925 468.47C320.845 465.292 321.774 462.279 322.68 459.343C325.099 451.501 327.384 444.092 328.798 435.642C329.115 433.755 329.773 429.829 328.426 425.194C327.646 422.506 326.308 419.976 324.451 417.676L326.249 416.224C328.298 418.765 329.777 421.567 330.644 424.552C332.137 429.691 331.421 433.969 331.076 436.025C329.637 444.625 327.33 452.104 324.886 460.023C323.985 462.948 323.059 465.948 322.143 469.112C320.935 473.286 319.43 478.482 317.987 485.435C316.543 492.384 315.494 499.419 314.865 506.347C313.966 516.271 314.101 522.715 314.146 524.832C314.168 525.962 314.173 526.199 313.81 526.564Z" fill="#F2F2F2"/>
<path d="M319.519 420.335C319.426 420.315 319.333 420.292 319.24 420.264C317.344 419.732 315.823 418.187 314.718 415.672C314.201 414.489 314.079 413.244 313.835 410.762C313.797 410.379 313.628 408.442 313.836 405.875C313.971 404.198 314.151 403.524 314.608 402.995C315.114 402.406 315.797 402.068 316.519 401.899C316.539 401.677 316.611 401.46 316.755 401.254C317.349 400.4 318.343 400.751 318.882 400.933C319.154 401.031 319.492 401.155 319.873 401.219C320.471 401.322 320.829 401.217 321.37 401.061C321.887 400.91 322.531 400.723 323.42 400.739C325.176 400.763 326.475 401.552 326.903 401.812C329.16 403.168 329.939 405.331 330.84 407.835C331.019 408.338 331.614 410.152 331.752 412.489C331.852 414.175 331.631 414.865 331.378 415.358C330.861 416.373 330.069 416.843 328.102 417.832C326.048 418.869 325.018 419.388 324.172 419.654C322.206 420.272 320.971 420.659 319.519 420.335Z" fill="#F2F2F2"/>
<path d="M161.968 65.1856L197.755 82.3632C197.755 82.3632 235.689 194.734 235.689 200.459C235.689 206.185 246.425 209.764 239.983 216.206C233.542 222.647 251.973 228.103 242.042 233.248C232.11 238.393 170.157 266.538 163.268 264C144.268 257 164.073 231.278 164.073 231.278C164.073 231.278 149.801 219.784 151.948 214.058C154.095 208.333 139.065 98.8251 139.065 98.8251L161.968 65.1856Z" fill="#E6E6E6"/>
<path d="M192.593 43.7256L196.644 51.8292C196.644 51.8292 200.696 37.2428 207.179 34.0014C213.662 30.76 214.472 25.8979 214.472 25.8979C214.472 25.8979 222.576 36.4325 228.248 34.0014C233.921 31.5704 236.352 29.9497 229.869 20.2255C223.386 10.5013 225.007 15.3634 225.007 15.3634C225.007 15.3634 219.334 7.25984 220.145 9.6909C220.955 12.1219 215.283 3.20809 215.283 5.63914C215.283 8.07019 211.231 0.777025 211.231 3.20809C211.231 5.63914 194.213 -2.46438 196.644 0.777035C199.075 4.01845 182.058 -5.70577 173.955 7.25985C165.851 20.2255 154.615 17.8277 158.612 25.9146C162.61 34.0014 160.989 55.8809 160.989 55.8809H172.165C172.165 55.8809 183.679 34.0014 192.593 43.7256Z" fill="#2F2E41"/>
<path d="M431.085 112.424L431.74 112.239L464.008 103.119L489.775 138.19L472.597 211.195L479.039 240.54C479.039 240.54 426.79 226.942 406.034 238.393C406.034 238.393 404.602 231.867 406.034 228.689C407.465 225.51 409.613 212.283 407.465 206.371C405.318 200.459 411.76 172.546 411.76 172.546C411.76 172.546 409.613 153.937 418.917 144.632C428.222 135.327 431.085 112.424 431.085 112.424Z" fill="#47706B"/>
<path d="M401.778 244.249L288.391 187.899C287.827 187.619 287.334 187.233 286.926 186.752L269.233 165.901C268.06 164.518 267.806 162.566 268.587 160.929L301.761 91.3281C302.342 90.1084 303.424 89.2078 304.729 88.8569C306.036 88.5067 307.423 88.744 308.537 89.5084L388.502 144.36C390.144 145.486 390.877 147.528 390.327 149.441L374.092 205.939C373.648 207.484 374.214 209.171 375.5 210.135L407.617 234.223C409.347 235.52 409.945 237.886 409.039 239.849L408.023 242.05C407.496 243.193 406.552 244.052 405.366 244.47C404.863 244.647 404.344 244.735 403.828 244.735C403.126 244.734 402.428 244.572 401.778 244.249Z" fill="#47706B"/>
<path d="M400.874 230.535L369.31 204.274C369.038 204.045 368.823 203.766 368.673 203.458C368.386 202.879 368.329 202.184 368.544 201.547L386.53 148.919C386.995 147.559 386.494 146.042 385.306 145.226L310.369 93.9223C309.603 93.3926 308.644 93.228 307.742 93.4642C306.833 93.7004 306.082 94.3159 305.666 95.1533L274.074 159.305C273.594 160.271 273.63 161.38 274.16 162.304C274.224 162.432 274.303 162.554 274.396 162.669L290.285 183.64C290.593 184.04 290.994 184.37 291.445 184.592L397.417 235.903C397.86 236.117 398.34 236.225 398.819 236.225C399.65 236.225 400.48 235.903 401.095 235.28C401.167 235.201 401.239 235.13 401.31 235.044C401.811 234.435 402.069 233.655 402.033 232.861C401.99 231.959 401.568 231.114 400.874 230.535Z" fill="#F2F2F2"/>
<path d="M286.505 155.368C286.768 155.368 287.02 155.224 287.145 154.974L312.833 103.941C313.011 103.588 312.868 103.158 312.515 102.98C312.161 102.801 311.732 102.944 311.554 103.297L285.867 154.331C285.689 154.684 285.831 155.114 286.184 155.292C286.288 155.344 286.397 155.368 286.505 155.368Z" fill="#47706B"/>
<path d="M300.104 163.957C300.366 163.957 300.618 163.813 300.744 163.563L326.432 112.53C326.61 112.177 326.467 111.746 326.114 111.569C325.76 111.39 325.331 111.533 325.153 111.886L299.466 162.919C299.288 163.273 299.43 163.703 299.783 163.88C299.887 163.932 299.996 163.957 300.104 163.957Z" fill="#47706B"/>
<path d="M311.556 171.114C311.818 171.114 312.07 170.97 312.196 170.72L337.884 119.687C338.061 119.334 337.919 118.904 337.566 118.726C337.212 118.548 336.783 118.69 336.605 119.043L310.918 170.077C310.74 170.43 310.882 170.86 311.235 171.038C311.339 171.09 311.448 171.114 311.556 171.114Z" fill="#47706B"/>
<path d="M271.014 164.201C279.895 161.577 288.449 164.033 290.118 169.686C291.786 175.338 285.94 182.046 277.055 184.669C273.52 185.766 269.774 186 266.13 185.353L228.358 195.995L223.742 178.163L261.468 169.565C264.176 167.04 267.449 165.201 271.014 164.201Z" fill="#FFB6B6"/>
<path d="M204.205 101.006L198.285 171.83L251.314 172.4L261.606 188.248C261.606 188.248 197.332 225.464 178.032 206.447C158.732 187.431 150.145 107.409 167.304 93.7121C184.463 80.0148 204.205 101.006 204.205 101.006Z" fill="#E6E6E6"/>
<path d="M377.92 228.882C368.685 228.187 361.558 222.858 362.002 216.981C362.445 211.104 370.291 206.905 379.529 207.602C383.223 207.83 386.808 208.939 389.986 210.837L429.077 214.278L427.071 232.588L388.747 227.252C385.32 228.652 381.607 229.211 377.92 228.882Z" fill="#A0616A"/>
<path d="M492.243 142.869L485.856 222.655C485.856 222.655 483.844 239.849 457.066 238.771C430.288 237.693 394.72 229.24 394.72 229.24L396.005 210.62L425.937 212.246C425.937 212.246 439.647 208.13 442.527 210.255C445.406 212.38 444.283 215.108 446.832 211.653C449.382 208.197 447.902 206.216 450.445 208.981C452.989 211.747 453.744 216.752 454.839 210.444C455.935 204.137 458.664 205.261 458.664 205.261L457.062 147.154C457.062 147.154 463.569 119.045 478.666 127.516C493.764 135.986 492.243 142.869 492.243 142.869Z" fill="#47706B"/>
</g>
<defs>
<clipPath id="clip0_82_141">
<rect width="583.04" height="529.629" fill="white"/>
</clipPath>
</defs>
</svg>
