<svg width="678" height="893" viewBox="0 0 678 893" fill="none" xmlns="http://www.w3.org/2000/svg">
<path d="M0.779297 50.7235C0.779297 23.1092 23.1651 0.723511 50.7793 0.723511H627.325C654.94 0.723511 677.325 23.1093 677.325 50.7235V842.221C677.325 869.835 654.94 892.221 627.325 892.221H50.7792C23.165 892.221 0.779297 869.835 0.779297 842.221V50.7235Z" fill="#47706B"/>
<path d="M799.957 825.393C799.957 927.746 716.984 1010.72 614.63 1010.72C512.277 1010.72 429.304 927.746 429.304 825.393C429.304 723.04 512.277 640.066 614.63 640.066C716.984 640.066 799.957 723.04 799.957 825.393Z" fill="#79BCB8"/>
<circle cx="485.797" cy="699.316" r="95.0747" fill="#76A6A1" fill-opacity="0.5"/>
</svg>
