<svg width="573" height="597" viewBox="0 0 573 597" fill="none" xmlns="http://www.w3.org/2000/svg">
<g clip-path="url(#clip0_206_2313)">
<path d="M542.637 556.302C542.637 578.778 421.165 597 271.318 597C121.472 597 0 578.778 0 556.302C0 540.391 60.8891 526.606 149.628 519.919C186.221 517.154 227.566 515.604 271.318 515.604C289.304 515.604 306.879 515.867 323.875 516.366C448.568 520.042 542.637 536.522 542.637 556.302Z" fill="#3F3D56"/>
<path opacity="0.1" d="M236.309 564.617C293.831 564.617 340.461 558.935 340.461 551.926C340.461 544.917 293.831 539.235 236.309 539.235C178.788 539.235 132.158 544.917 132.158 551.926C132.158 558.935 178.788 564.617 236.309 564.617Z" fill="black"/>
<path d="M235.873 561.116C290.252 561.116 334.335 514.094 334.335 456.089C334.335 398.085 290.252 351.063 235.873 351.063C181.493 351.063 137.41 398.085 137.41 456.089C137.41 514.094 181.493 561.116 235.873 561.116Z" fill="#3F3D56"/>
<path d="M266.942 518.23H205.677V574.244H266.942V518.23Z" fill="#47706B"/>
<path d="M347.025 531.796L343.524 551.051L366.28 554.552L381.159 545.8L380.284 531.796H347.025Z" fill="#575A89"/>
<path d="M232.371 170.33C232.371 170.33 230.621 190.46 226.245 191.335C221.868 192.21 235.872 227.219 235.872 227.219H256.877L273.506 222.843L265.629 203.588C265.629 203.588 255.127 189.585 263.004 178.207C270.881 166.829 232.371 170.33 232.371 170.33Z" fill="#A0616A"/>
<path opacity="0.1" d="M232.371 170.33C232.371 170.33 230.621 190.46 226.245 191.335C221.868 192.21 235.872 227.219 235.872 227.219H256.877L273.506 222.843L265.629 203.588C265.629 203.588 255.127 189.585 263.004 178.207C270.881 166.829 232.371 170.33 232.371 170.33Z" fill="black"/>
<path d="M188.61 324.369C188.61 324.369 165.854 368.13 184.234 376.882C202.614 385.634 206.99 384.759 206.99 387.385C206.99 390.01 203.489 389.135 205.239 393.511C206.99 397.887 201.738 415.392 206.99 425.894C212.241 436.397 210.491 444.274 210.491 444.274C210.491 444.274 210.491 445.149 212.241 448.65C213.991 452.151 214.867 454.777 213.991 456.527C213.116 458.277 207.865 469.655 213.116 472.281C218.368 474.907 245.499 476.657 248.125 472.281C250.751 467.905 245.499 465.279 248.125 462.654C250.751 460.028 252.501 459.153 250.751 457.402C249 455.652 247.25 433.771 247.25 433.771C247.25 433.771 251.626 408.39 249.875 404.889C248.125 401.388 245.499 397.887 247.25 395.262C249 392.636 250.751 393.511 251.626 390.01C252.501 386.509 254.252 378.632 254.252 378.632L263.879 377.757L286.635 382.133C286.635 382.133 312.016 410.14 340.023 418.893C340.023 418.893 347.9 426.77 350.526 426.77C353.152 426.77 353.152 426.77 352.276 428.52C351.401 430.27 348.775 430.27 350.526 432.021C352.276 433.771 354.902 431.146 353.152 433.771C351.401 436.397 349.651 436.397 351.401 438.147C353.152 439.898 350.526 449.525 350.526 450.4C350.526 451.276 342.649 533.546 345.275 535.297C347.9 537.047 384.659 542.299 387.285 535.297C389.911 528.295 385.535 519.543 385.535 519.543C385.535 519.543 398.663 414.516 395.162 407.515C391.661 400.513 379.408 369.005 313.767 348.875C313.767 348.875 295.387 345.374 295.387 342.748C295.387 340.123 293.637 323.493 290.136 322.618C286.635 321.743 266.505 320.868 266.505 320.868L241.123 328.745L206.114 322.618L188.61 324.369Z" fill="#2F2E41"/>
<path d="M219.243 471.406L214.867 487.16C214.867 487.16 211.366 512.541 215.742 518.668C219.179 523.48 225.317 529.372 236.699 530.406C239.889 530.699 243.083 529.894 245.753 528.125C248.423 526.355 250.41 523.728 251.384 520.676C251.514 520.311 251.596 519.93 251.626 519.543C251.626 517.793 249 496.787 249 496.787L244.624 474.907L243.749 468.78L219.243 471.406Z" fill="#2F2E41"/>
<path d="M347.025 546.675C347.025 546.675 342.648 542.299 341.773 546.675C340.898 551.051 337.397 569.43 343.524 570.306C349.65 571.181 408.29 579.933 414.417 576.432C420.543 572.931 431.921 567.68 424.919 565.054C417.917 562.429 397.787 554.552 397.787 554.552C397.787 554.552 386.41 539.673 384.659 538.798C382.909 537.923 373.281 539.673 368.905 543.174C364.529 546.675 347.025 546.675 347.025 546.675Z" fill="#2F2E41"/>
<path d="M253.376 188.709C268.36 188.709 280.508 176.562 280.508 161.578C280.508 146.593 268.36 134.446 253.376 134.446C238.391 134.446 226.244 146.593 226.244 161.578C226.244 176.562 238.391 188.709 253.376 188.709Z" fill="#A0616A"/>
<path d="M250.75 222.843L240.248 211.465L228.606 188.709C228.606 188.709 220.118 186.084 218.367 190.46C216.617 194.836 185.109 208.839 185.109 208.839C185.109 208.839 192.986 282.358 189.485 289.36C185.984 296.362 179.858 324.369 185.109 326.994C190.36 329.62 214.866 326.994 222.743 330.495C230.62 333.996 253.376 333.996 259.503 329.62C265.629 325.244 267.38 321.743 273.506 324.369C278.722 326.604 290.915 250.184 294.425 227.411C294.721 225.498 294.476 223.541 293.716 221.76C292.957 219.98 291.715 218.448 290.13 217.337C282.277 211.829 268.133 202.336 265.629 203.588C262.128 205.339 250.75 222.843 250.75 222.843Z" fill="#575A89"/>
<path d="M288.385 219.342C290.441 219.856 292.289 220.986 293.684 222.582C295.078 224.177 295.95 226.16 296.184 228.266L303.264 291.985C303.264 291.985 285.76 329.62 277.008 304.239C268.255 278.857 288.385 219.342 288.385 219.342Z" fill="#575A89"/>
<path d="M286.634 298.112L305.889 292.861C305.889 292.861 309.39 317.367 312.891 317.367C316.392 317.367 300.638 331.37 292.761 329.62C284.884 327.87 273.506 321.743 272.631 317.367C271.756 312.991 280.508 294.611 280.508 294.611L286.634 298.112Z" fill="#575A89"/>
<path d="M232.895 173.282C234.74 169.214 234.419 164.469 235.945 160.27C236.761 158.022 238.087 155.994 239.817 154.343C241.548 152.692 243.637 151.463 245.921 150.753C248.204 150.043 250.622 149.87 252.983 150.249C255.345 150.627 257.587 151.547 259.535 152.935C261.497 154.334 263.464 156.3 265.859 156.033C268.438 155.745 270.738 152.868 273.109 153.923C275.737 155.091 275.027 159.801 277.69 160.889C279.091 161.462 280.747 160.58 281.556 159.3C282.263 157.955 282.648 156.464 282.681 154.945C283.049 151.212 283.381 147.261 281.762 143.878C281.081 142.731 280.487 141.534 279.986 140.298C279.703 139.144 279.59 137.954 279.649 136.767C279.634 132.379 279.314 127.803 277.106 124.011C274.656 119.804 270.126 117.114 265.401 115.94C260.676 114.766 255.726 114.946 250.874 115.357C242.855 116.036 234.491 117.491 228.172 122.477C227.314 123.104 226.574 123.88 225.99 124.769C225.436 125.825 225.044 126.958 224.828 128.131C223.462 133.694 221.413 139.067 218.73 144.128C217.439 146.273 216.383 148.552 215.583 150.924C214.913 153.335 214.958 156.082 216.361 158.154C217.502 159.841 219.328 160.74 220.762 162.12C222.184 163.486 222.849 166.114 224.423 167.149C225.797 168.053 227.444 167.415 228.845 168.372C230.645 169.602 230.775 172.297 232.895 173.282Z" fill="#2F2E41"/>
<path d="M255.127 235.971L257.753 230.72C257.753 230.72 296.262 242.098 304.139 252.601C304.139 252.601 323.394 240.348 333.897 242.098L344.399 243.848L312.016 272.731L270.881 269.23L255.127 235.971Z" fill="#F2F2F2"/>
<path d="M253.376 230.72L217.492 280.608L269.13 305.989C269.13 305.989 273.958 308.615 277.671 305.989L312.016 290.235L344.399 243.848L312.016 260.478C312.016 260.478 308.515 253.476 301.513 256.977L253.376 230.72Z" fill="#47706B"/>
<path d="M308.516 319.117L315.518 300.738C315.518 300.738 331.271 280.608 322.519 270.98C313.767 261.353 304.14 298.987 304.14 298.987L308.516 319.117Z" fill="#A0616A"/>
<path d="M227.73 316.184L243.009 303.798C243.009 303.798 266.736 294.289 263.995 281.57C261.254 268.851 234.045 296.576 234.045 296.576L227.73 316.184Z" fill="#A0616A"/>
<path opacity="0.1" d="M189.923 227.657H189.048C189.048 227.657 175.482 211.465 172.856 233.346C170.231 255.226 161.478 327.87 184.234 330.495C206.99 333.121 223.181 319.555 223.181 319.555C223.181 319.555 239.811 294.174 233.684 294.174C230.72 294.174 222.658 292.842 215.304 293.298C207.46 293.785 200.412 295.995 200.863 293.736C201.739 289.36 214.429 233.783 189.923 227.657Z" fill="black"/>
<path d="M188.609 210.59L185.108 208.84C185.108 208.84 171.105 211.465 168.479 233.346C165.854 255.226 157.101 327.87 179.857 330.495C202.613 333.121 233.246 326.994 233.246 326.994C233.246 326.994 239.372 293.736 233.246 293.736C227.119 293.736 195.611 298.112 196.486 293.736C197.362 289.36 213.116 216.717 188.609 210.59Z" fill="#575A89"/>
<path d="M295.824 309.053L305.475 294.261L311.578 318.68L295.824 325.682V309.053Z" fill="#575A89"/>
<path d="M97.5636 98.1241C110.615 98.1241 121.195 87.5442 121.195 74.4931C121.195 61.4421 110.615 50.8622 97.5636 50.8622C84.5126 50.8622 73.9326 61.4421 73.9326 74.4931C73.9326 87.5442 84.5126 98.1241 97.5636 98.1241Z" fill="#F2F2F2"/>
<path d="M125.57 250.413H69.5557V306.427H125.57V250.413Z" fill="#F2F2F2"/>
<path d="M325.582 0L339.76 24.5561L353.937 49.1121H325.582H297.228L311.404 24.5561L325.582 0Z" fill="#F2F2F2"/>
<path d="M572.602 147.238C572.263 157.714 569.712 166.112 564.948 172.43C560.184 178.748 554.523 181.908 547.968 181.908C542.628 181.908 537.947 178.816 533.927 172.632C529.905 166.448 527.894 156.936 527.895 144.095C527.895 141.256 527.962 138.553 528.098 135.985C528.232 133.417 528.401 130.984 528.605 128.686L532.153 95.3328H508.735C504.68 137.505 501.351 162.596 498.749 170.605C496.147 178.613 491.737 182.618 485.52 182.618C482.713 182.549 480.035 181.427 478.018 179.475C476.848 178.439 475.923 177.155 475.309 175.718C474.695 174.28 474.409 172.724 474.469 171.162C474.469 168.055 476.919 163.712 481.819 158.136C486.719 152.56 489.439 147.474 489.98 142.878L496.062 95.3327H486.229C483.457 95.3493 480.729 96.0269 478.271 97.3095C476.009 98.3484 474.041 99.9335 472.543 101.922L468.184 108.41H464.636C467.946 98.1379 472.018 90.4164 476.852 85.2457C481.683 80.0754 487.242 77.4903 493.528 77.4904H570.98V95.3327H544.825C544.014 103.443 543.389 111.553 542.949 119.663C542.509 127.773 542.29 135.917 542.291 144.095C542.291 149.637 543.575 154.132 546.143 157.578C548.711 161.025 551.921 162.748 555.774 162.748C558.139 162.748 560.622 161.785 563.225 159.859C564.461 158.992 565.494 157.868 566.256 156.565C567.017 155.261 567.487 153.809 567.635 152.306C567.838 150.82 567.99 149.655 568.091 148.809C568.192 147.965 568.243 147.441 568.243 147.238L572.602 147.238Z" fill="#47706B"/>
<path opacity="0.1" d="M572.602 147.238C572.263 157.714 569.712 166.112 564.948 172.43C560.184 178.748 554.523 181.908 547.968 181.908C542.628 181.908 537.947 178.816 533.927 172.632C529.905 166.448 527.894 156.936 527.895 144.095C527.895 141.256 527.962 138.553 528.098 135.985C528.232 133.417 528.401 130.984 528.605 128.686L532.153 95.3328H508.735C504.68 137.505 501.351 162.596 498.749 170.605C496.147 178.613 491.737 182.618 485.52 182.618C482.713 182.549 480.035 181.427 478.018 179.475C476.848 178.439 475.923 177.155 475.309 175.718C474.695 174.28 474.409 172.724 474.469 171.162C474.469 168.055 476.919 163.712 481.819 158.136C486.719 152.56 489.439 147.474 489.98 142.878L496.062 95.3327H486.229C483.457 95.3493 480.729 96.0269 478.271 97.3095C476.009 98.3484 474.041 99.9335 472.543 101.922L468.184 108.41H464.636C467.946 98.1379 472.018 90.4164 476.852 85.2457C481.683 80.0754 487.242 77.4903 493.528 77.4904H570.98V95.3327H544.825C544.014 103.443 543.389 111.553 542.949 119.663C542.509 127.773 542.29 135.917 542.291 144.095C542.291 149.637 543.575 154.132 546.143 157.578C548.711 161.025 551.921 162.748 555.774 162.748C558.139 162.748 560.622 161.785 563.225 159.859C564.461 158.992 565.494 157.868 566.256 156.565C567.017 155.261 567.487 153.809 567.635 152.306C567.838 150.82 567.99 149.655 568.091 148.809C568.192 147.965 568.243 147.441 568.243 147.238L572.602 147.238Z" fill="black"/>
<path d="M572.602 144.07C572.263 154.547 569.712 162.944 564.948 169.262C560.184 175.581 554.523 178.74 547.968 178.741C542.628 178.741 537.947 175.649 533.927 169.465C529.905 163.281 527.894 153.768 527.895 140.927C527.895 138.089 527.962 135.386 528.098 132.817C528.232 130.25 528.401 127.817 528.605 125.518L532.153 92.1653H508.735C504.68 134.338 501.351 159.429 498.749 167.437C496.147 175.446 491.737 179.45 485.52 179.451C482.713 179.382 480.035 178.26 478.018 176.308C476.848 175.271 475.923 173.988 475.309 172.55C474.695 171.113 474.409 169.557 474.469 167.995C474.469 164.887 476.919 160.545 481.819 154.968C486.719 149.392 489.439 144.307 489.98 139.711L496.062 92.1653H486.229C483.457 92.1818 480.729 92.8595 478.271 94.142C476.009 95.181 474.041 96.7661 472.543 98.7547L468.184 105.243H464.636C467.946 94.9705 472.018 87.249 476.852 82.0783C481.683 76.908 487.242 74.3229 493.528 74.3229H570.98V92.1653H544.825C544.014 100.275 543.389 108.386 542.949 116.496C542.509 124.606 542.29 132.75 542.291 140.927C542.291 146.47 543.575 150.964 546.143 154.411C548.711 157.858 551.921 159.581 555.774 159.581C558.139 159.581 560.622 158.618 563.225 156.691C564.461 155.825 565.494 154.701 566.256 153.397C567.017 152.094 567.487 150.641 567.635 149.139C567.838 147.653 567.99 146.487 568.091 145.641C568.192 144.797 568.243 144.273 568.243 144.07H572.602Z" fill="#47706B"/>
</g>
<defs>
<clipPath id="clip0_206_2313">
<rect width="572.602" height="597" fill="white"/>
</clipPath>
</defs>
</svg>
