<svg width="541" height="391" viewBox="0 0 541 391" fill="none" xmlns="http://www.w3.org/2000/svg">
<g clip-path="url(#clip0_45_185)">
<path d="M344.752 294.447V388.976H107.92C80.9365 388.976 58.9822 367.773 58.9822 341.712C58.9822 315.65 80.9364 294.447 107.92 294.447H344.752Z" fill="#F2F2F2"/>
<path d="M350.569 388.249C350.568 389.213 350.185 390.138 349.503 390.819C348.822 391.501 347.897 391.884 346.933 391.885H103.702C90.4914 391.885 77.8221 386.637 68.481 377.296C59.1399 367.955 53.8921 355.285 53.8921 342.075C53.8921 328.865 59.1399 316.195 68.481 306.854C77.8221 297.513 90.4914 292.265 103.702 292.265H346.933C347.897 292.265 348.822 292.648 349.504 293.33C350.186 294.012 350.569 294.937 350.569 295.901C350.569 296.865 350.186 297.79 349.504 298.472C348.822 299.154 347.897 299.537 346.933 299.537H103.702C92.4199 299.537 81.6002 304.018 73.6227 311.996C65.6453 319.973 61.1636 330.793 61.1636 342.075C61.1636 353.357 65.6453 364.177 73.6227 372.154C81.6002 380.131 92.4199 384.613 103.702 384.613H346.933C347.897 384.614 348.822 384.997 349.503 385.678C350.185 386.36 350.568 387.285 350.569 388.249Z" fill="#47706B"/>
<path d="M344.753 316.262H90.2499C90.057 316.262 89.8721 316.185 89.7357 316.049C89.5993 315.913 89.5227 315.728 89.5227 315.535C89.5227 315.342 89.5993 315.157 89.7357 315.021C89.8721 314.884 90.057 314.808 90.2499 314.808H344.753C344.946 314.808 345.131 314.884 345.267 315.021C345.403 315.157 345.48 315.342 345.48 315.535C345.48 315.728 345.403 315.913 345.267 316.049C345.131 316.185 344.946 316.262 344.753 316.262Z" fill="#CCCCCC"/>
<path d="M344.753 333.714H90.2499C90.057 333.714 89.8721 333.637 89.7357 333.501C89.5993 333.364 89.5227 333.179 89.5227 332.987C89.5227 332.794 89.5993 332.609 89.7357 332.472C89.8721 332.336 90.057 332.259 90.2499 332.259H344.753C344.946 332.259 345.131 332.336 345.267 332.472C345.403 332.609 345.48 332.794 345.48 332.987C345.48 333.179 345.403 333.364 345.267 333.501C345.131 333.637 344.946 333.714 344.753 333.714Z" fill="#CCCCCC"/>
<path d="M344.753 351.165H90.2499C90.057 351.165 89.8721 351.089 89.7357 350.952C89.5993 350.816 89.5227 350.631 89.5227 350.438C89.5227 350.245 89.5993 350.06 89.7357 349.924C89.8721 349.788 90.057 349.711 90.2499 349.711H344.753C344.946 349.711 345.131 349.788 345.267 349.924C345.403 350.06 345.48 350.245 345.48 350.438C345.48 350.631 345.403 350.816 345.267 350.952C345.131 351.089 344.946 351.165 344.753 351.165Z" fill="#CCCCCC"/>
<path d="M344.753 368.616H90.2499C90.057 368.616 89.8721 368.54 89.7357 368.403C89.5993 368.267 89.5227 368.082 89.5227 367.889C89.5227 367.696 89.5993 367.511 89.7357 367.375C89.8721 367.239 90.057 367.162 90.2499 367.162H344.753C344.946 367.162 345.131 367.239 345.267 367.375C345.403 367.511 345.48 367.696 345.48 367.889C345.48 368.082 345.403 368.267 345.267 368.403C345.131 368.54 344.946 368.616 344.753 368.616Z" fill="#CCCCCC"/>
<path d="M527.788 312.241L468.479 385.85L284.063 237.256C263.051 220.326 259.259 190.04 275.611 169.747C291.962 149.453 322.361 146.717 343.373 163.647L527.788 312.241Z" fill="#F2F2F2"/>
<path d="M473.464 388.934C472.859 389.684 471.981 390.164 471.022 390.267C470.063 390.37 469.103 390.088 468.352 389.484L278.953 236.875C268.666 228.586 262.093 216.551 260.68 203.416C259.267 190.282 263.13 177.124 271.418 166.837C279.707 156.55 291.742 149.977 304.877 148.564C318.011 147.152 331.169 151.014 341.456 159.303L530.855 311.912C531.228 312.211 531.537 312.581 531.766 313C531.995 313.419 532.139 313.88 532.191 314.354C532.242 314.829 532.199 315.31 532.065 315.768C531.93 316.226 531.707 316.654 531.407 317.025C531.107 317.397 530.737 317.707 530.318 317.935C529.899 318.164 529.439 318.308 528.964 318.359C528.489 318.41 528.009 318.367 527.55 318.232C527.092 318.098 526.665 317.874 526.293 317.574L336.894 164.965C332.544 161.457 327.546 158.841 322.185 157.266C316.824 155.69 311.205 155.186 305.65 155.783C300.094 156.379 294.71 158.065 289.806 160.742C284.902 163.42 280.573 167.038 277.067 171.389C273.562 175.74 270.947 180.739 269.374 186.1C267.801 191.462 267.299 197.081 267.898 202.636C268.497 208.192 270.184 213.575 272.864 218.478C275.543 223.381 279.162 227.708 283.515 231.213L472.914 383.822C473.665 384.427 474.144 385.305 474.247 386.264C474.351 387.223 474.069 388.183 473.464 388.934Z" fill="#CCCCCC"/>
<path d="M514.102 329.227L315.926 169.547C315.851 169.488 315.79 169.414 315.744 169.33C315.698 169.246 315.669 169.154 315.659 169.059C315.649 168.964 315.657 168.868 315.684 168.776C315.711 168.685 315.756 168.599 315.816 168.525C315.876 168.451 315.95 168.389 316.033 168.343C316.117 168.297 316.209 168.268 316.304 168.258C316.399 168.248 316.495 168.257 316.587 168.283C316.678 168.31 316.764 168.355 316.838 168.415L515.014 328.095C515.088 328.155 515.15 328.229 515.196 328.313C515.242 328.396 515.271 328.489 515.281 328.584C515.292 328.679 515.283 328.775 515.256 328.866C515.229 328.958 515.185 329.044 515.125 329.118C515.065 329.192 514.991 329.254 514.907 329.3C514.823 329.346 514.731 329.375 514.636 329.385C514.541 329.395 514.445 329.386 514.353 329.359C514.261 329.332 514.176 329.287 514.102 329.227Z" fill="#CCCCCC"/>
<path d="M503.152 342.816L304.976 183.136C304.826 183.015 304.73 182.839 304.71 182.648C304.689 182.456 304.746 182.264 304.867 182.114C304.987 181.964 305.163 181.868 305.355 181.847C305.546 181.827 305.738 181.883 305.888 182.003L504.065 341.683C504.139 341.743 504.201 341.817 504.247 341.901C504.293 341.985 504.322 342.077 504.332 342.172C504.342 342.267 504.334 342.363 504.307 342.455C504.28 342.546 504.235 342.632 504.175 342.706C504.115 342.781 504.041 342.843 503.958 342.888C503.874 342.934 503.782 342.963 503.687 342.973C503.592 342.983 503.495 342.975 503.404 342.948C503.312 342.921 503.227 342.876 503.152 342.816Z" fill="#CCCCCC"/>
<path d="M492.202 356.405L294.026 196.725C293.876 196.604 293.78 196.428 293.759 196.237C293.738 196.045 293.795 195.853 293.916 195.703C294.037 195.552 294.213 195.457 294.404 195.436C294.596 195.415 294.788 195.472 294.938 195.593L493.115 355.273C493.189 355.332 493.251 355.406 493.297 355.49C493.342 355.574 493.371 355.666 493.382 355.761C493.392 355.856 493.383 355.952 493.356 356.044C493.329 356.135 493.285 356.221 493.225 356.295C493.165 356.369 493.091 356.431 493.007 356.477C492.923 356.523 492.831 356.551 492.736 356.562C492.641 356.572 492.545 356.563 492.454 356.536C492.362 356.51 492.277 356.465 492.202 356.405Z" fill="#CCCCCC"/>
<path d="M481.254 369.994L283.078 210.315C283.004 210.255 282.942 210.181 282.896 210.097C282.85 210.013 282.822 209.921 282.811 209.826C282.801 209.731 282.81 209.635 282.837 209.544C282.863 209.452 282.908 209.366 282.968 209.292C283.028 209.218 283.102 209.156 283.186 209.11C283.27 209.064 283.362 209.036 283.457 209.025C283.551 209.015 283.647 209.024 283.739 209.051C283.831 209.078 283.916 209.122 283.991 209.182L482.166 368.862C482.241 368.922 482.303 368.996 482.349 369.08C482.395 369.164 482.423 369.256 482.434 369.351C482.444 369.446 482.435 369.542 482.409 369.633C482.382 369.725 482.337 369.811 482.277 369.885C482.217 369.959 482.143 370.021 482.059 370.067C481.975 370.113 481.883 370.142 481.788 370.152C481.693 370.162 481.597 370.153 481.505 370.126C481.414 370.099 481.328 370.055 481.254 369.994Z" fill="#CCCCCC"/>
<path d="M245.836 284.511L237.523 284.511L233.57 252.446L245.839 252.448L245.836 284.511Z" fill="#FFB8B8"/>
<path d="M231.584 282.136H247.616V292.23H221.49C221.49 290.905 221.751 289.592 222.258 288.367C222.766 287.143 223.509 286.03 224.446 285.093C225.384 284.155 226.497 283.412 227.721 282.904C228.946 282.397 230.259 282.136 231.584 282.136Z" fill="#2F2E41"/>
<path d="M160.909 284.511L152.596 284.511L148.642 252.446L160.912 252.448L160.909 284.511Z" fill="#FFB8B8"/>
<path d="M146.657 282.136H162.689V292.23H136.563C136.563 290.905 136.824 289.592 137.332 288.367C137.839 287.143 138.582 286.03 139.52 285.093C140.457 284.155 141.57 283.412 142.795 282.904C144.019 282.397 145.332 282.136 146.657 282.136Z" fill="#2F2E41"/>
<path d="M188.674 46.6683V43.0326C188.674 36.8131 191.145 30.8483 195.543 26.4505C199.94 22.0527 205.905 19.582 212.125 19.582C218.344 19.582 224.309 22.0527 228.707 26.4505C233.105 30.8483 235.575 36.8131 235.575 43.0326V46.6683C235.575 51.1522 233.794 55.4523 230.624 58.6229C227.453 61.7934 223.153 63.5746 218.669 63.5746H205.58C203.36 63.5746 201.162 63.1373 199.111 62.2877C197.059 61.4381 195.196 60.1928 193.626 58.6229C192.056 57.053 190.811 55.1892 189.961 53.1381C189.111 51.0869 188.674 48.8885 188.674 46.6683Z" fill="#2F2E41"/>
<path d="M212.125 64.8256C221.988 64.8256 229.984 56.8296 229.984 46.966C229.984 37.1025 221.988 29.1065 212.125 29.1065C202.261 29.1065 194.265 37.1025 194.265 46.966C194.265 56.8296 202.261 64.8256 212.125 64.8256Z" fill="#FFB8B8"/>
<path d="M114.981 108.347C115.705 107.662 116.571 107.145 117.518 106.832C118.464 106.518 119.467 106.416 120.457 106.532C121.447 106.649 122.4 106.981 123.248 107.505C124.096 108.029 124.818 108.733 125.365 109.566L140.675 106.67L144.704 115.545L123.026 119.331C121.564 120.156 119.851 120.417 118.21 120.063C116.57 119.709 115.116 118.766 114.124 117.412C113.133 116.058 112.672 114.387 112.83 112.717C112.988 111.046 113.753 109.491 114.981 108.347Z" fill="#FFB8B8"/>
<path d="M198.401 76.3764L173.296 92.915L130.933 106.442C130.371 106.623 129.89 106.992 129.57 107.488C129.25 107.984 129.112 108.575 129.179 109.161L130.103 117.121C130.144 117.473 130.258 117.813 130.438 118.118C130.618 118.424 130.86 118.688 131.149 118.895C131.437 119.102 131.765 119.246 132.112 119.318C132.459 119.391 132.818 119.39 133.165 119.315L173.034 110.769C174.964 110.358 176.788 109.555 178.394 108.409L206.599 88.3424C207.622 87.6109 208.438 86.6273 208.967 85.4873C209.497 84.3472 209.723 83.0894 209.623 81.8362C209.52 80.5813 209.091 79.3749 208.38 78.3358C207.669 77.2966 206.7 76.4605 205.567 75.9096C204.435 75.3587 203.179 75.112 201.922 75.1939C200.666 75.2758 199.452 75.6833 198.401 76.3764Z" fill="#CCCCCC"/>
<path d="M237.671 275.412C237.033 275.412 236.409 275.227 235.874 274.878C235.34 274.529 234.919 274.032 234.662 273.448L196.552 179.281C196.463 179.077 196.314 178.905 196.124 178.788C195.935 178.671 195.714 178.615 195.491 178.628C195.269 178.64 195.055 178.721 194.88 178.858C194.705 178.996 194.576 179.183 194.51 179.396L163.418 271.071C163.287 271.498 163.07 271.893 162.78 272.233C162.491 272.572 162.135 272.849 161.734 273.046C161.333 273.243 160.897 273.356 160.451 273.378C160.005 273.399 159.56 273.33 159.142 273.173L148.715 269.263C148.15 269.053 147.653 268.69 147.281 268.214C146.909 267.739 146.677 267.17 146.609 266.57C141.919 225.709 182.821 122.572 183.235 121.535L183.349 121.248L220.635 129.496L220.713 129.58C235.589 145.809 247.816 248.166 250.117 268.52C250.202 269.255 250.035 269.998 249.642 270.625C249.25 271.252 248.655 271.727 247.956 271.972L238.753 275.226C238.406 275.349 238.04 275.412 237.671 275.412Z" fill="#2F2E41"/>
<path d="M205.545 132.816C196.512 132.816 186.44 131.015 183.34 123.581L183.268 123.41L183.365 123.252C185.812 119.237 189.046 112.388 187.308 111.102C183.883 108.57 182.222 104.405 182.369 98.7219C182.689 86.3852 191.095 75.4321 203.286 71.4665C206.689 70.3775 210.152 69.4859 213.658 68.7962C216.214 68.2805 218.852 68.3372 221.383 68.9623C223.914 69.5873 226.275 70.7652 228.297 72.4113C230.345 74.0682 231.999 76.158 233.143 78.5305C234.287 80.9031 234.891 83.4994 234.911 86.1331C235.039 99.317 233.01 117.679 222.614 130.286C222.126 130.871 221.448 131.265 220.699 131.399C215.698 132.304 210.628 132.778 205.545 132.816Z" fill="#CCCCCC"/>
<path d="M202.185 132.322C202.677 130.559 203.845 129.06 205.435 128.153C207.025 127.246 208.909 127.002 210.677 127.476C211.038 127.577 211.391 127.708 211.73 127.866L223.355 117.287L231.439 122.734L214.815 137.444C214.065 138.798 212.883 139.861 211.458 140.466C210.033 141.07 208.447 141.181 206.953 140.78C206.082 140.541 205.267 140.133 204.555 139.578C203.843 139.022 203.248 138.332 202.805 137.545C202.362 136.759 202.079 135.892 201.972 134.996C201.866 134.099 201.938 133.19 202.185 132.322Z" fill="#FFB8B8"/>
<path d="M221.514 132.456C220.759 132.456 220.028 132.196 219.445 131.718L214.86 127.972C214.478 127.659 214.172 127.265 213.964 126.817C213.756 126.37 213.651 125.881 213.659 125.387C213.667 124.894 213.786 124.409 214.008 123.968C214.229 123.527 214.548 123.142 214.94 122.842L234.167 108.095C234.395 107.92 234.544 107.661 234.583 107.376C234.621 107.091 234.546 106.802 234.373 106.572L222.505 90.8829C221.127 89.0662 220.435 86.8203 220.553 84.5427C220.671 82.2651 221.591 80.1027 223.151 78.4384C224.793 76.6647 227.042 75.5733 229.451 75.3806C231.861 75.1879 234.255 75.908 236.158 77.398L236.233 77.4772L248.625 95.2213C249.965 96.272 251.044 97.6182 251.778 99.1548C252.512 100.691 252.88 102.377 252.855 104.079C252.829 105.782 252.411 107.456 251.632 108.97C250.852 110.484 249.734 111.797 248.363 112.808L223.461 131.814C222.897 132.231 222.215 132.456 221.514 132.456Z" fill="#CCCCCC"/>
<path d="M196.306 41.9419V33.0808L212.125 26.1729L227.209 33.0808V41.9419C227.209 42.3276 227.056 42.6975 226.783 42.9703C226.511 43.243 226.141 43.3962 225.755 43.3962H197.76C197.374 43.3962 197.004 43.243 196.732 42.9703C196.459 42.6975 196.306 42.3276 196.306 41.9419Z" fill="#2F2E41"/>
<path d="M211.399 20.7576C209.073 13.3126 213.958 4.78036 221.179 1.83346C228.401 -1.11344 237.041 0.946535 243.135 5.81526C249.228 10.684 253.009 17.9764 255.012 25.5146C257.016 33.0528 257.396 40.9134 257.766 48.7045C266.639 50.3343 272.675 60.8583 269.601 69.3398C266.527 77.8213 255.15 82.035 247.293 77.6019C239.436 73.1688 237.161 61.2522 242.831 54.2358C245.514 50.9159 247.013 46.7956 247.09 42.5277C247.167 38.2597 245.818 34.088 243.257 30.6733C240.695 27.2586 237.068 24.7961 232.949 23.6758C228.83 22.5555 224.455 22.8414 220.517 24.4883C216.144 26.317 210.657 21.5656 211.399 20.7576Z" fill="#2F2E41"/>
<path d="M111.701 73.9727C101.077 73.903 90.5869 71.6054 80.9071 67.2284C80.3309 66.9716 79.8418 66.5528 79.4994 66.0229C79.157 65.4931 78.9761 64.8751 78.9788 64.2442V37.7628C78.9798 36.8953 79.3248 36.0636 79.9383 35.4501C80.5517 34.8367 81.3834 34.4916 82.251 34.4907H141.15C142.018 34.4916 142.849 34.8367 143.463 35.4501C144.076 36.0636 144.421 36.8953 144.422 37.7628V64.2442C144.425 64.8751 144.244 65.4931 143.902 66.0229C143.559 66.5528 143.07 66.9717 142.494 67.2285C132.814 71.6054 122.324 73.903 111.701 73.9727Z" fill="#47706B"/>
<path d="M111.693 52.5196C111.256 52.5199 110.824 52.433 110.421 52.2639L63.7148 32.5585C63.1125 32.3044 62.6001 31.8757 62.2437 31.3277C61.8873 30.7797 61.7032 30.1375 61.7151 29.4839C61.7271 28.8303 61.9346 28.1952 62.3109 27.6606C62.6871 27.1261 63.2149 26.7164 63.8261 26.4846L110.533 8.7656C111.285 8.4789 112.117 8.48067 112.868 8.77057L158.949 26.4895C159.557 26.7232 160.081 27.133 160.455 27.6663C160.828 28.1996 161.034 28.8322 161.046 29.4832C161.058 30.1343 160.876 30.7741 160.522 31.3208C160.169 31.8676 159.66 32.2964 159.061 32.5524L112.98 52.2575C112.573 52.4308 112.135 52.52 111.693 52.5196Z" fill="#47706B"/>
<path d="M84.4325 69.03C86.842 69.03 88.7954 67.0767 88.7954 64.6671C88.7954 62.2576 86.842 60.3042 84.4325 60.3042C82.0229 60.3042 80.0696 62.2576 80.0696 64.6671C80.0696 67.0767 82.0229 69.03 84.4325 69.03Z" fill="#3F3D56"/>
<path opacity="0.2" d="M159.22 29.7553L113.139 49.4604C112.779 49.614 112.393 49.6937 112.002 49.6946C111.611 49.6955 111.224 49.6178 110.864 49.4659L64.1581 29.761C63.5715 29.5195 63.0822 29.0893 62.7673 28.5386C62.5614 28.8957 62.4338 29.2926 62.3929 29.7028C62.3521 30.113 62.399 30.5272 62.5306 30.9179C62.6621 31.3086 62.8752 31.6669 63.1558 31.9689C63.4365 32.2709 63.7781 32.5098 64.1581 32.6696L110.864 52.3745C111.224 52.5264 111.611 52.6041 112.002 52.6032C112.393 52.6022 112.779 52.5226 113.139 52.369L159.22 32.6638C159.599 32.5026 159.938 32.263 160.217 31.9608C160.495 31.6587 160.707 31.3009 160.837 30.911C160.967 30.5212 161.013 30.1081 160.972 29.6992C160.931 29.2902 160.803 28.8946 160.598 28.5386C160.286 29.0849 159.801 29.5126 159.22 29.7553Z" fill="black"/>
<path d="M84.7989 64.6503C84.9918 64.6503 85.1768 64.5737 85.3131 64.4373C85.4495 64.3009 85.5261 64.116 85.5261 63.9231V39.5918L109.508 30.855C109.701 30.8579 109.887 30.784 110.026 30.6497C110.164 30.5153 110.244 30.3315 110.246 30.1387C110.249 29.9458 110.175 29.7597 110.041 29.6213C109.907 29.4829 109.723 29.4036 109.53 29.4007L85.5477 38.1375C85.3548 38.133 85.1629 38.1678 84.9837 38.2397C84.8046 38.3116 84.6419 38.4191 84.5055 38.5557C84.3676 38.6907 84.2582 38.8519 84.1838 39.0298C84.1093 39.2078 84.0712 39.3989 84.0718 39.5918V63.9231C84.0718 64.116 84.1484 64.3009 84.2848 64.4373C84.4211 64.5736 84.6061 64.6503 84.7989 64.6503Z" fill="#3F3D56"/>
</g>
<defs>
<clipPath id="clip0_45_185">
<rect width="541" height="392.142" fill="white" transform="translate(0 0.470215)"/>
</clipPath>
</defs>
</svg>
