<svg width="800" height="348" viewBox="0 0 800 348" fill="none" xmlns="http://www.w3.org/2000/svg">
<g clip-path="url(#clip0_45_281)">
<path d="M721.625 143.166H252.258C250.265 143.166 248.354 143.958 246.945 145.367C245.536 146.776 244.744 148.688 244.744 150.681C244.744 152.674 245.536 154.585 246.945 155.994C248.354 157.403 250.265 158.195 252.258 158.195H265.553V337.963C265.553 339.956 266.345 341.868 267.754 343.277C269.164 344.686 271.075 345.478 273.068 345.478C275.061 345.478 276.972 344.686 278.381 343.277C279.791 341.868 280.582 339.956 280.582 337.963L280.697 158.195H657.411L692.145 337.963C692.145 339.956 692.937 341.868 694.346 343.277C695.756 344.686 697.667 345.478 699.66 345.478C701.653 345.478 703.564 344.686 704.973 343.277C706.383 341.868 707.174 339.956 707.174 337.963L709.361 158.195H721.625C723.618 158.195 725.53 157.403 726.939 155.994C728.348 154.585 729.14 152.674 729.14 150.681C729.14 148.688 728.348 146.776 726.939 145.367C725.53 143.958 723.618 143.166 721.625 143.166Z" fill="#CCCCCC"/>
<path d="M333.617 109.683V141.504H253.891C251.802 141.577 249.719 141.237 247.76 140.505C245.802 139.772 244.007 138.661 242.478 137.235C240.95 135.809 239.717 134.096 238.85 132.193C237.983 130.291 237.5 128.236 237.427 126.147C237.354 124.057 237.694 121.974 238.426 120.016C239.159 118.058 240.27 116.263 241.696 114.734C243.122 113.205 244.835 111.972 246.738 111.106C248.64 110.239 250.695 109.755 252.784 109.683C253.153 109.67 253.522 109.67 253.891 109.683L333.617 109.683Z" fill="#F2F2F2"/>
<path d="M335.576 141.259C335.575 141.584 335.446 141.895 335.217 142.125C334.987 142.354 334.676 142.483 334.352 142.483H252.472C248.027 142.48 243.765 140.712 240.623 137.568C237.481 134.424 235.716 130.161 235.716 125.716C235.716 121.271 237.481 117.008 240.623 113.863C243.765 110.719 248.027 108.951 252.472 108.948H334.352C334.513 108.948 334.672 108.979 334.821 109.04C334.97 109.102 335.105 109.192 335.219 109.306C335.333 109.419 335.424 109.554 335.485 109.703C335.547 109.852 335.579 110.011 335.579 110.172C335.579 110.333 335.547 110.493 335.485 110.641C335.424 110.79 335.333 110.925 335.219 111.039C335.105 111.152 334.97 111.242 334.821 111.304C334.672 111.365 334.513 111.396 334.352 111.396H252.472C248.678 111.402 245.041 112.913 242.361 115.598C239.68 118.283 238.174 121.922 238.174 125.716C238.174 129.51 239.68 133.149 242.361 135.834C245.041 138.518 248.678 140.03 252.472 140.035H334.352C334.676 140.036 334.987 140.165 335.217 140.394C335.446 140.624 335.575 140.935 335.576 141.259Z" fill="#47706B"/>
<path d="M333.616 117.026H247.942C247.878 117.026 247.815 117.001 247.769 116.955C247.723 116.91 247.697 116.848 247.696 116.783C247.696 116.718 247.721 116.656 247.766 116.61C247.811 116.563 247.873 116.537 247.938 116.536H333.616C333.68 116.537 333.742 116.563 333.787 116.609C333.833 116.654 333.858 116.716 333.858 116.781C333.858 116.845 333.833 116.907 333.787 116.953C333.742 116.999 333.68 117.025 333.616 117.026Z" fill="#CCCCCC"/>
<path d="M333.616 122.901H247.942C247.878 122.901 247.815 122.876 247.769 122.83C247.723 122.785 247.697 122.723 247.696 122.658C247.696 122.593 247.721 122.531 247.766 122.485C247.811 122.438 247.873 122.412 247.938 122.411H333.616C333.68 122.412 333.742 122.438 333.787 122.484C333.833 122.529 333.858 122.591 333.858 122.656C333.858 122.72 333.833 122.782 333.787 122.828C333.742 122.874 333.68 122.9 333.616 122.901Z" fill="#CCCCCC"/>
<path d="M333.616 128.776H247.942C247.878 128.776 247.815 128.751 247.769 128.706C247.723 128.66 247.697 128.598 247.696 128.534C247.696 128.469 247.721 128.407 247.766 128.36C247.811 128.314 247.873 128.287 247.938 128.287H333.616C333.68 128.287 333.742 128.313 333.787 128.359C333.833 128.405 333.858 128.467 333.858 128.531C333.858 128.596 333.833 128.658 333.787 128.704C333.742 128.749 333.68 128.776 333.616 128.776Z" fill="#CCCCCC"/>
<path d="M333.616 134.65H247.942C247.878 134.65 247.815 134.625 247.769 134.58C247.723 134.534 247.697 134.472 247.696 134.407C247.696 134.343 247.721 134.28 247.766 134.234C247.811 134.188 247.873 134.161 247.938 134.16H333.616C333.68 134.161 333.742 134.187 333.787 134.233C333.833 134.279 333.858 134.341 333.858 134.405C333.858 134.47 333.833 134.532 333.787 134.577C333.742 134.623 333.68 134.649 333.616 134.65Z" fill="#CCCCCC"/>
<path d="M318.589 76.1564V107.978H238.864C234.644 108.125 230.539 106.589 227.451 103.709C224.363 100.829 222.546 96.8404 222.399 92.6206C222.252 88.4008 223.788 84.2956 226.668 81.2079C229.548 78.1203 233.537 76.3032 237.757 76.1564C238.126 76.1436 238.495 76.1436 238.864 76.1564H318.589Z" fill="#F2F2F2"/>
<path d="M320.546 107.733C320.546 108.058 320.417 108.369 320.187 108.599C319.958 108.828 319.647 108.957 319.322 108.957H237.443C232.996 108.957 228.731 107.191 225.586 104.046C222.442 100.902 220.675 96.6369 220.675 92.1898C220.675 87.7428 222.442 83.478 225.586 80.3334C228.731 77.1889 232.996 75.4224 237.443 75.4224H319.322C319.483 75.4224 319.642 75.454 319.791 75.5155C319.939 75.577 320.074 75.6672 320.188 75.7808C320.301 75.8945 320.391 76.0294 320.453 76.1779C320.514 76.3264 320.546 76.4855 320.546 76.6463C320.546 76.807 320.514 76.9661 320.453 77.1146C320.391 77.2631 320.301 77.398 320.188 77.5117C320.074 77.6253 319.939 77.7155 319.791 77.777C319.642 77.8385 319.483 77.8702 319.322 77.8702H237.443C233.645 77.8702 230.003 79.3788 227.317 82.0643C224.632 84.7498 223.123 88.392 223.123 92.1899C223.123 95.9877 224.632 99.63 227.317 102.315C230.003 105.001 233.645 106.51 237.443 106.51H319.322C319.647 106.51 319.958 106.639 320.187 106.868C320.417 107.098 320.546 107.409 320.546 107.733Z" fill="#3F3D56"/>
<path d="M318.589 83.4996H232.915C232.851 83.5 232.788 83.4747 232.742 83.4292C232.696 83.3838 232.67 83.3219 232.669 83.2571C232.669 83.1924 232.694 83.13 232.739 83.0837C232.784 83.0374 232.846 83.0109 232.911 83.0101H318.589C318.653 83.0107 318.715 83.0368 318.76 83.0826C318.806 83.1285 318.831 83.1904 318.831 83.2549C318.831 83.3193 318.806 83.3813 318.76 83.4271C318.715 83.4729 318.653 83.499 318.589 83.4996Z" fill="#CCCCCC"/>
<path d="M318.589 89.3747H232.915C232.851 89.375 232.788 89.3497 232.742 89.3042C232.696 89.2588 232.67 89.1969 232.669 89.1322C232.669 89.0674 232.694 89.005 232.739 88.9588C232.784 88.9125 232.846 88.886 232.911 88.8851H318.589C318.653 88.8858 318.715 88.9118 318.76 88.9577C318.806 89.0035 318.831 89.0654 318.831 89.1299C318.831 89.1944 318.806 89.2563 318.76 89.3021C318.715 89.348 318.653 89.374 318.589 89.3747Z" fill="#CCCCCC"/>
<path d="M318.589 95.2488H232.915C232.851 95.2492 232.788 95.2238 232.742 95.1784C232.696 95.1329 232.67 95.0711 232.669 95.0063C232.669 94.9415 232.694 94.8792 232.739 94.8329C232.784 94.7866 232.846 94.7601 232.911 94.7593H318.589C318.653 94.7599 318.715 94.786 318.76 94.8318C318.806 94.8777 318.831 94.9396 318.831 95.0041C318.831 95.0686 318.806 95.1304 318.76 95.1763C318.715 95.2221 318.653 95.2482 318.589 95.2488Z" fill="#CCCCCC"/>
<path d="M318.589 101.124H232.915C232.851 101.125 232.788 101.099 232.742 101.054C232.696 101.008 232.67 100.946 232.669 100.882C232.669 100.817 232.694 100.755 232.739 100.708C232.784 100.662 232.846 100.635 232.911 100.635H318.589C318.653 100.635 318.715 100.661 318.76 100.707C318.806 100.753 318.831 100.815 318.831 100.879C318.831 100.944 318.806 101.006 318.76 101.052C318.715 101.097 318.653 101.124 318.589 101.124Z" fill="#CCCCCC"/>
<path d="M411.334 255.769V228.024C411.334 226.797 410.847 225.621 409.98 224.754C409.112 223.887 407.936 223.399 406.71 223.399H301.508C300.281 223.399 299.105 223.887 298.238 224.754C297.371 225.621 296.884 226.797 296.884 228.024V255.769H411.334Z" fill="#CCCCCC"/>
<path d="M411.334 266.172H296.884V302.01H411.334V266.172Z" fill="#CCCCCC"/>
<path d="M296.884 312.415V340.16C296.884 341.387 297.371 342.563 298.238 343.43C299.105 344.297 300.281 344.785 301.508 344.785H406.71C407.936 344.785 409.112 344.297 409.98 343.43C410.847 342.563 411.334 341.387 411.334 340.16V312.415H296.884Z" fill="#CCCCCC"/>
<path d="M353.529 244.207C355.444 244.207 356.997 242.655 356.997 240.739C356.997 238.824 355.444 237.271 353.529 237.271C351.613 237.271 350.06 238.824 350.06 240.739C350.06 242.655 351.613 244.207 353.529 244.207Z" fill="white"/>
<path d="M353.529 290.45C355.444 290.45 356.997 288.897 356.997 286.982C356.997 285.066 355.444 283.514 353.529 283.514C351.613 283.514 350.06 285.066 350.06 286.982C350.06 288.897 351.613 290.45 353.529 290.45Z" fill="white"/>
<path d="M353.716 335.714C355.631 335.714 357.184 334.161 357.184 332.245C357.184 330.33 355.631 328.777 353.716 328.777C351.801 328.777 350.248 330.33 350.248 332.245C350.248 334.161 351.801 335.714 353.716 335.714Z" fill="white"/>
<path d="M398.356 191.762V223.583H318.631C314.413 223.727 310.311 222.191 307.226 219.311C304.14 216.431 302.325 212.444 302.178 208.226C302.031 204.009 303.565 199.905 306.442 196.818C309.32 193.73 313.306 191.912 317.523 191.762C317.893 191.749 318.262 191.749 318.631 191.762H398.356Z" fill="#F2F2F2"/>
<path d="M400.316 223.34C400.316 223.665 400.187 223.976 399.957 224.206C399.728 224.435 399.417 224.564 399.092 224.564H317.212C312.766 224.565 308.502 222.801 305.357 219.658C302.212 216.516 300.443 212.253 300.441 207.807C300.438 203.361 302.201 199.096 305.343 195.95C308.484 192.803 312.746 191.034 317.192 191.029H399.092C399.253 191.029 399.412 191.06 399.561 191.121C399.71 191.183 399.845 191.273 399.959 191.387C400.073 191.5 400.164 191.635 400.226 191.784C400.287 191.933 400.319 192.092 400.319 192.253C400.319 192.414 400.287 192.574 400.226 192.722C400.164 192.871 400.073 193.006 399.959 193.12C399.845 193.233 399.71 193.323 399.561 193.385C399.412 193.446 399.253 193.477 399.092 193.477H317.212C313.418 193.482 309.78 194.993 307.099 197.678C304.417 200.363 302.911 204.002 302.911 207.797C302.911 211.591 304.417 215.231 307.099 217.916C309.78 220.601 313.418 222.111 317.212 222.116H399.092C399.417 222.117 399.728 222.246 399.957 222.475C400.187 222.705 400.316 223.016 400.316 223.34Z" fill="#3F3D56"/>
<path d="M398.359 199.106H312.686C312.621 199.107 312.559 199.081 312.513 199.036C312.467 198.99 312.44 198.928 312.44 198.864C312.439 198.799 312.464 198.737 312.509 198.69C312.555 198.644 312.617 198.618 312.681 198.617H398.359C398.424 198.617 398.485 198.643 398.531 198.689C398.576 198.735 398.602 198.797 398.602 198.861C398.602 198.926 398.576 198.988 398.531 199.034C398.485 199.08 398.424 199.106 398.359 199.106Z" fill="#CCCCCC"/>
<path d="M398.359 204.982H312.686C312.621 204.982 312.559 204.957 312.513 204.911C312.467 204.866 312.44 204.804 312.44 204.739C312.439 204.674 312.464 204.612 312.509 204.566C312.555 204.519 312.617 204.493 312.681 204.492H398.359C398.424 204.493 398.485 204.519 398.531 204.565C398.576 204.61 398.602 204.672 398.602 204.737C398.602 204.801 398.576 204.863 398.531 204.909C398.485 204.955 398.424 204.981 398.359 204.982Z" fill="#CCCCCC"/>
<path d="M398.359 210.857H312.686C312.621 210.857 312.559 210.832 312.513 210.786C312.467 210.741 312.44 210.679 312.44 210.614C312.439 210.55 312.464 210.487 312.509 210.441C312.555 210.395 312.617 210.368 312.681 210.367H398.359C398.424 210.368 398.485 210.394 398.531 210.44C398.576 210.486 398.602 210.548 398.602 210.612C398.602 210.677 398.576 210.739 398.531 210.784C398.485 210.83 398.424 210.856 398.359 210.857Z" fill="#CCCCCC"/>
<path d="M398.359 216.73H312.686C312.621 216.731 312.559 216.706 312.513 216.66C312.467 216.615 312.44 216.553 312.44 216.488C312.439 216.423 312.464 216.361 312.509 216.315C312.555 216.268 312.617 216.242 312.681 216.241H398.359C398.424 216.242 398.485 216.268 398.531 216.313C398.576 216.359 398.602 216.421 398.602 216.486C398.602 216.55 398.576 216.612 398.531 216.658C398.485 216.704 398.424 216.73 398.359 216.73Z" fill="#CCCCCC"/>
<path d="M304.723 65.5404H268.4C268.055 65.5401 267.715 65.6192 267.406 65.7716L258.238 70.3612C257.936 70.4894 257.679 70.7036 257.498 70.977C257.317 71.2504 257.221 71.5709 257.221 71.8987C257.221 72.2265 257.317 72.5471 257.498 72.8205C257.679 73.0939 257.936 73.308 258.238 73.4363L267.406 78.0258C267.715 78.1782 268.055 78.2574 268.4 78.2571H304.723C305.224 78.286 305.716 78.1166 306.092 77.7855C306.469 77.4545 306.7 76.9884 306.735 76.4882V67.3091C306.7 66.809 306.469 66.3429 306.092 66.0119C305.716 65.6808 305.224 65.5114 304.723 65.5404Z" fill="#3F3D56"/>
<path d="M306.737 67.3092V76.4882C306.701 76.9884 306.47 77.4545 306.094 77.7856C305.717 78.1166 305.225 78.286 304.725 78.2571H297.488V65.5404H304.725C305.225 65.5114 305.717 65.6808 306.094 66.0119C306.47 66.343 306.701 66.809 306.737 67.3092Z" fill="#47706B"/>
<path d="M86.9534 245.403C91.6305 247.047 96.6523 247.458 101.535 246.598C106.417 245.738 110.996 243.635 114.83 240.492C124.594 232.297 127.655 218.796 130.146 206.294C132.602 193.968 135.058 181.643 137.514 169.317L122.089 179.938C110.997 187.575 99.6543 195.458 91.9739 206.521C84.2936 217.584 80.9411 232.686 87.112 244.656" fill="#E6E6E6"/>
<path d="M88.2714 290.171C86.7103 278.8 85.105 267.282 86.2 255.788C87.1726 245.581 90.2867 235.611 96.6268 227.436C99.9921 223.106 104.087 219.395 108.727 216.471C109.937 215.707 111.051 217.625 109.846 218.386C101.817 223.46 95.6068 230.953 92.1107 239.785C88.2494 249.606 87.6294 260.312 88.2948 270.745C88.6972 277.054 89.55 283.322 90.4094 289.582C90.4771 289.865 90.4348 290.163 90.2911 290.417C90.1474 290.67 89.9129 290.859 89.6351 290.946C89.3517 291.022 89.0495 290.984 88.7943 290.839C88.539 290.694 88.3511 290.454 88.2714 290.171Z" fill="#F2F2F2"/>
<path d="M103.308 270.048C105.314 273.097 108.072 275.578 111.315 277.252C114.558 278.925 118.177 279.736 121.824 279.605C131.197 279.16 139.012 272.618 146.046 266.407L166.852 248.037L153.082 247.378C143.179 246.904 133.021 246.462 123.589 249.516C114.157 252.57 105.459 259.919 103.734 269.682" fill="#E6E6E6"/>
<path d="M83.8591 296.706C91.3732 283.411 100.089 268.634 115.663 263.911C119.993 262.602 124.533 262.133 129.04 262.53C130.46 262.652 130.105 264.841 128.688 264.719C121.134 264.092 113.595 266.087 107.34 270.367C101.321 274.464 96.634 280.16 92.6673 286.201C90.2376 289.901 88.0611 293.758 85.8843 297.609C85.1886 298.84 83.1553 297.952 83.8591 296.706Z" fill="#F2F2F2"/>
<path d="M71.8201 310.701C72.0733 307.768 73.1265 304.96 74.8652 302.583C76.6039 300.207 78.9613 298.353 81.6806 297.224V289.537H94.5727V297.466C97.1583 298.651 99.3834 300.5 101.021 302.825C102.659 305.15 103.651 307.868 103.896 310.701L106.928 345.94H68.7886L71.8201 310.701Z" fill="#F2F2F2"/>
<path d="M510.258 142.443L506.423 140.828L503.792 121.602H468.756L465.905 140.749L462.474 142.465C462.309 142.547 462.178 142.682 462.1 142.848C462.022 143.015 462.003 143.202 462.045 143.381C462.087 143.56 462.188 143.719 462.332 143.833C462.476 143.947 462.654 144.009 462.838 144.009H509.942C510.13 144.009 510.312 143.944 510.458 143.824C510.604 143.705 510.703 143.539 510.741 143.355C510.778 143.171 510.75 142.979 510.662 142.813C510.574 142.647 510.432 142.516 510.258 142.443Z" fill="#E6E6E6"/>
<path d="M572.517 124.16H400.412C399.509 124.158 398.644 123.798 398.006 123.159C397.368 122.52 397.01 121.653 397.01 120.75V96.4815H575.919V120.75C575.919 121.653 575.561 122.519 574.923 123.159C574.285 123.798 573.42 124.158 572.517 124.16Z" fill="#CCCCCC"/>
<path d="M576.101 107.952H396.856V4.11032C396.857 3.02056 397.29 1.97579 398.061 1.20523C398.832 0.434662 399.876 0.00121937 400.966 0H571.99C573.08 0.00121935 574.125 0.434664 574.895 1.20523C575.666 1.97579 576.099 3.02055 576.101 4.11032L576.101 107.952Z" fill="#3F3D56"/>
<path d="M565.394 100.415H407.56C406.72 100.415 405.914 100.08 405.32 99.4863C404.726 98.8923 404.392 98.0868 404.391 97.2467V10.7056C404.392 9.86546 404.726 9.05997 405.32 8.46588C405.914 7.87179 406.72 7.53761 407.56 7.53664H565.394C566.234 7.53761 567.04 7.87179 567.634 8.46588C568.228 9.05997 568.562 9.86546 568.563 10.7056V97.2467C568.562 98.0868 568.228 98.8923 567.634 99.4863C567.04 100.08 566.234 100.415 565.394 100.415Z" fill="white"/>
<path d="M523.825 130.952C524.844 130.011 526.057 129.304 527.379 128.882C528.7 128.461 530.098 128.334 531.474 128.511C532.85 128.688 534.17 129.164 535.342 129.907C536.514 130.649 537.509 131.64 538.256 132.808L559.605 129.013L565.076 141.424L534.852 146.36C532.806 147.486 530.417 147.822 528.14 147.305C525.862 146.788 523.854 145.453 522.494 143.554C521.135 141.655 520.52 139.323 520.765 137C521.01 134.677 522.099 132.525 523.825 130.952Z" fill="#FFB6B6"/>
<path d="M543.585 146.798L565.842 146.52L568.659 146.482L613.942 145.911C613.942 145.911 626.238 134.18 636.946 122.102L635.445 111.247C633.981 100.594 628.697 90.8358 620.575 83.7882C605.239 94.0352 596.346 114.318 596.346 114.318L568.269 121.033L565.46 121.705L548.015 125.874L543.585 146.798Z" fill="#47706B"/>
<path d="M657.522 213.518H615.977C615.977 215.298 570.563 216.743 570.563 216.743C569.561 217.497 568.648 218.363 567.841 219.323C565.417 222.214 564.092 225.869 564.1 229.642V232.222C564.102 236.498 565.801 240.598 568.825 243.622C571.848 246.645 575.948 248.345 580.224 248.346H657.522C661.797 248.342 665.897 246.642 668.92 243.619C671.943 240.596 673.643 236.497 673.646 232.222V229.642C673.641 225.368 671.94 221.27 668.917 218.247C665.895 215.225 661.797 213.524 657.522 213.518Z" fill="#E4E4E4"/>
<path d="M627.312 247.706H610.543V344.498H627.312V247.706Z" fill="#E4E4E4"/>
<path d="M562.817 343.909C562.817 345.72 588.228 344.609 619.574 344.609C650.921 344.609 676.332 345.72 676.332 343.909C676.332 342.097 650.921 327.728 619.574 327.728C588.228 327.728 562.817 342.097 562.817 343.909Z" fill="#E4E4E4"/>
<path d="M551.547 332.849L539.067 332.848L533.13 284.71L551.549 284.71L551.547 332.849Z" fill="#FFB6B6"/>
<path d="M554.732 344.946L514.49 344.944V344.435C514.491 340.281 516.141 336.297 519.078 333.36C522.016 330.423 525.999 328.772 530.153 328.772H530.154L554.733 328.773L554.732 344.946Z" fill="#2F2E41"/>
<path d="M514.666 332.849L502.185 332.848L496.248 284.71L514.667 284.71L514.666 332.849Z" fill="#FFB6B6"/>
<path d="M517.85 344.946L477.608 344.944V344.435C477.608 340.281 479.259 336.297 482.196 333.36C485.133 330.423 489.117 328.772 493.271 328.772H493.272L517.85 328.773L517.85 344.946Z" fill="#2F2E41"/>
<path d="M626.462 55.712C638.447 55.712 648.162 45.9966 648.162 34.0121C648.162 22.0276 638.447 12.3122 626.462 12.3122C614.478 12.3122 604.762 22.0276 604.762 34.0121C604.762 45.9966 614.478 55.712 626.462 55.712Z" fill="#FFB6B6"/>
<path d="M661.576 182.691C661.576 182.691 668.857 221.192 641.154 226.094C613.452 230.997 573.462 234.443 573.462 234.443L555.505 318.229L531.378 316.075C531.378 316.075 534.587 215.215 542.478 207.325C550.369 199.434 600.241 175.807 600.241 175.807L661.576 182.691Z" fill="#2F2E41"/>
<path d="M607.471 166.555L595.355 178.71C595.355 178.71 507.872 192.801 504.497 213.007C499.402 243.513 493.384 309.85 493.384 309.85L519.686 307.878L530.001 232.47L572.085 222.897L619.965 196.803L607.471 166.555Z" fill="#2F2E41"/>
<path d="M647.339 21.059C645.197 17.0174 642.475 8.96259 638.151 7.46872C635.75 6.67258 633.269 6.14392 630.752 5.89235L623.403 8.71886L627.402 5.60814C626.624 5.56175 625.845 5.52382 625.067 5.49436L620.109 7.40142L622.646 5.42837C618.023 5.38093 613.252 5.86158 609.67 8.67569C606.616 11.0747 603.591 20.1627 603.102 24.0149C602.579 27.7001 602.762 31.4511 603.641 35.0679L604.897 36.2619C605.336 35.2547 605.666 34.2035 605.882 33.126C606.332 31.1128 607.197 29.2155 608.421 27.555C609.645 25.8945 611.201 24.5071 612.991 23.4814L613.059 23.4429C615.165 22.2576 617.721 22.3122 620.136 22.3991L631.606 22.8119C634.366 22.9112 637.338 23.0858 639.489 24.8169C640.857 26.0939 641.932 27.6514 642.641 29.3828C643.71 31.5405 645.799 39.679 645.799 39.679C645.799 39.679 646.981 38.1428 647.548 39.2862C648.456 36.3029 649.008 33.2226 649.193 30.1096C649.374 26.9827 648.735 23.8628 647.339 21.059Z" fill="#2F2E41"/>
<path d="M723.235 43.5413C721.851 43.6325 720.503 44.026 719.288 44.6942C718.072 45.3625 717.017 46.2891 716.199 47.4089C715.38 48.5287 714.817 49.8144 714.548 51.1754C714.28 52.5364 714.314 53.9397 714.647 55.2864L697.197 68.1582L702.433 80.6702L726.82 62.1466C729.045 61.4375 730.933 59.9367 732.126 57.9287C733.318 55.9207 733.733 53.5449 733.291 51.2516C732.849 48.9582 731.582 46.9067 729.728 45.4856C727.875 44.0646 725.564 43.3728 723.235 43.5413Z" fill="#FFB6B6"/>
<path d="M720.431 69.8195L676.685 118.403C676.685 118.403 655.766 111.706 639.587 104.446L632.318 82.1221C630.63 76.9432 629.91 71.498 630.193 66.0584C652.622 60.0902 678.709 82.2971 678.709 82.2971L711.454 56.6478L720.431 69.8195Z" fill="#47706B"/>
<path d="M618.354 186.278C610.549 183.583 602.479 180.795 593.774 179.748L593.4 179.703L593.504 179.341C602.514 147.703 600.265 127.464 595.85 97.062C594.911 90.5044 596.117 83.8189 599.29 78.0034C602.462 72.1879 607.43 67.5542 613.452 64.794L613.506 64.7698L638.367 63.19L638.424 63.1866L656.505 68.5044C659.106 69.2751 661.382 70.8773 662.986 73.0655C664.589 75.2538 665.431 77.9074 665.382 80.6198C665.186 90.6179 665.602 101.781 666.041 113.598C667.028 140.111 668.048 167.526 662.259 185.314L662.228 185.407L662.151 185.468C656.829 189.803 650.161 192.145 643.297 192.091C635.181 192.091 626.899 189.23 618.354 186.278Z" fill="#47706B"/>
</g>
<defs>
<clipPath id="clip0_45_281">
<rect width="800" height="347.043" fill="white"/>
</clipPath>
</defs>
</svg>
