<svg width="78" height="78" viewBox="0 0 78 78" fill="none" xmlns="http://www.w3.org/2000/svg">
<path d="M65.6947 4.70361H12.0385C7.80511 4.70361 4.37329 8.13543 4.37329 12.3688V66.0251C4.37329 70.2584 7.80511 73.6902 12.0385 73.6902H65.6947C69.9281 73.6902 73.3599 70.2584 73.3599 66.0251V12.3688C73.3599 8.13543 69.9281 4.70361 65.6947 4.70361Z" stroke="white" stroke-width="7.66518" stroke-linecap="round" stroke-linejoin="round"/>
<path d="M27.3685 35.3644C31.6019 35.3644 35.0337 31.9326 35.0337 27.6992C35.0337 23.4659 31.6019 20.0341 27.3685 20.0341C23.1352 20.0341 19.7034 23.4659 19.7034 27.6992C19.7034 31.9326 23.1352 35.3644 27.3685 35.3644Z" stroke="white" stroke-width="7.66518" stroke-linecap="round" stroke-linejoin="round"/>
<path d="M73.3599 50.6947L61.5326 38.8673C60.0951 37.4303 58.1458 36.623 56.1133 36.623C54.0808 36.623 52.1314 37.4303 50.694 38.8673L15.8711 73.6902" stroke="white" stroke-width="7.66518" stroke-linecap="round" stroke-linejoin="round"/>
</svg>
