<svg width="330" height="281" viewBox="0 0 330 281" fill="none" xmlns="http://www.w3.org/2000/svg">
<rect x="-189" width="519" height="440.413" rx="88.0826" fill="#A5A5A5"/>
<g clip-path="url(#clip0_52_3)">
<path d="M95.6835 65.4537L76.7926 59.1567C76.4694 59.049 76.12 59.049 75.7969 59.1567L56.906 65.4537C56.5925 65.5582 56.3199 65.7587 56.1267 66.0267C55.9335 66.2948 55.8296 66.6168 55.8296 66.9472V82.6897C55.8296 83.1072 55.9954 83.5076 56.2907 83.8028C56.5859 84.098 56.9863 84.2639 57.4038 84.2639C57.8213 84.2639 58.2218 84.098 58.517 83.8028C58.8122 83.5076 58.9781 83.1072 58.9781 82.6897V69.1315L65.5879 71.3335C63.8318 74.1707 63.2733 77.5888 64.0352 80.8374C64.7971 84.0859 66.817 86.8994 69.6514 88.66C66.1094 90.0492 63.0475 92.5621 60.8081 95.9979C60.6917 96.171 60.6108 96.3655 60.5701 96.5701C60.5295 96.7748 60.53 96.9854 60.5715 97.1899C60.613 97.3943 60.6947 97.5885 60.8119 97.7611C60.9291 97.9337 61.0795 98.0813 61.2542 98.1952C61.429 98.3092 61.6246 98.3873 61.8298 98.425C62.035 98.4627 62.2457 98.4592 62.4495 98.4148C62.6533 98.3704 62.8463 98.2859 63.0172 98.1662C63.1881 98.0465 63.3335 97.8941 63.445 97.7177C66.4105 93.1682 71.0938 90.5609 76.2947 90.5609C81.4956 90.5609 86.179 93.1682 89.1445 97.7177C89.3753 98.0609 89.732 98.2994 90.1374 98.3817C90.5427 98.464 90.9642 98.3835 91.3106 98.1575C91.657 97.9316 91.9006 97.5783 91.9887 97.1742C92.0768 96.7701 92.0023 96.3475 91.7813 95.9979C89.5419 92.5621 86.4682 90.0492 82.938 88.66C85.7697 86.8995 87.7877 84.0878 88.5495 80.8417C89.3112 77.5955 88.7546 74.1797 87.0015 71.3433L95.6835 68.4506C95.997 68.3462 96.2697 68.1458 96.4629 67.8777C96.6562 67.6096 96.7602 67.2875 96.7602 66.9571C96.7602 66.6266 96.6562 66.3045 96.4629 66.0365C96.2697 65.7684 95.997 65.568 95.6835 65.4635V65.4537ZM85.7402 77.9669C85.7406 79.4602 85.3869 80.9323 84.7083 82.2624C84.0296 83.5926 83.0452 84.7429 81.8359 85.6189C80.6266 86.4949 79.2268 87.0718 77.7514 87.3021C76.276 87.5323 74.767 87.4095 73.3482 86.9437C71.9295 86.4779 70.6414 85.6823 69.5896 84.6223C68.5379 83.5622 67.7524 82.2679 67.2978 80.8456C66.8431 79.4232 66.7321 77.9133 66.974 76.4397C67.2159 74.9662 67.8037 73.5709 68.6892 72.3685L75.7969 74.7299C76.12 74.8376 76.4694 74.8376 76.7926 74.7299L83.9003 72.3685C85.0963 73.99 85.7411 75.9521 85.7402 77.9669Z" fill="white"/>
<path d="M127.176 68.8029C128.207 67.5258 128.723 65.9173 128.723 63.9771H133.659V89.7634H128.723V74.2917C128.723 72.7199 128.932 71.2464 129.349 69.8712H128.723C128.477 70.8044 128.072 71.7008 127.507 72.5603C126.967 73.3953 126.255 74.0829 125.371 74.6232C124.487 75.1389 123.492 75.4091 122.387 75.4336V70.7921C124.573 70.743 126.169 70.0799 127.176 68.8029ZM148.343 85.7481C149.767 85.7481 150.934 85.3184 151.842 84.4588C152.775 83.5993 153.463 82.4942 153.905 81.1434C154.347 79.7682 154.568 78.3438 154.568 76.8703C154.568 75.3968 154.347 73.9847 153.905 72.634C153.463 71.2587 152.775 70.1413 151.842 69.2818C150.934 68.4222 149.767 67.9924 148.343 67.9924C146.918 67.9924 145.739 68.4222 144.806 69.2818C143.873 70.1413 143.185 71.2587 142.743 72.634C142.326 73.9847 142.117 75.3968 142.117 76.8703C142.117 78.3438 142.326 79.7682 142.743 81.1434C143.185 82.4942 143.873 83.5993 144.806 84.4588C145.739 85.3184 146.918 85.7481 148.343 85.7481ZM148.343 63.5351C150.897 63.5351 152.996 64.1859 154.642 65.4875C156.312 66.7891 157.54 68.4591 158.326 70.4974C159.112 72.5357 159.504 74.66 159.504 76.8703C159.504 79.0805 159.112 81.2048 158.326 83.2432C157.54 85.2815 156.312 86.9515 154.642 88.2531C152.996 89.5547 150.897 90.2055 148.343 90.2055C145.789 90.2055 143.677 89.5547 142.007 88.2531C140.337 86.9515 139.109 85.2815 138.323 83.2432C137.562 81.2048 137.181 79.0805 137.181 76.8703C137.181 74.66 137.562 72.5357 138.323 70.4974C139.109 68.4591 140.337 66.7891 142.007 65.4875C143.677 64.1859 145.789 63.5351 148.343 63.5351ZM166.271 85.5271C166.836 86.0674 167.119 86.7059 167.119 87.4427C167.119 88.204 166.836 88.8548 166.271 89.3951C165.731 89.9353 165.093 90.2055 164.356 90.2055C163.545 90.2055 162.858 89.9353 162.293 89.3951C161.728 88.8548 161.446 88.204 161.446 87.4427C161.446 86.6814 161.728 86.0306 162.293 85.4903C162.858 84.95 163.545 84.6798 164.356 84.6798C165.093 84.6798 165.731 84.9623 166.271 85.5271ZM164.872 91.4211C165.093 91.0036 165.178 90.5616 165.129 90.095L164.356 84.6798C165.977 84.729 167.033 85.5762 167.524 87.2216C168.015 88.8425 167.782 90.4756 166.824 92.121C165.866 93.7664 164.38 94.6751 162.367 94.847V93.263C162.956 93.1156 163.472 92.8823 163.914 92.5631C164.356 92.2438 164.675 91.8632 164.872 91.4211ZM182.59 85.7481C184.014 85.7481 185.181 85.3184 186.09 84.4588C187.023 83.5993 187.71 82.4942 188.153 81.1434C188.595 79.7682 188.816 78.3438 188.816 76.8703C188.816 75.3968 188.595 73.9847 188.153 72.634C187.71 71.2587 187.023 70.1413 186.09 69.2818C185.181 68.4222 184.014 67.9924 182.59 67.9924C181.166 67.9924 179.987 68.4222 179.054 69.2818C178.12 70.1413 177.433 71.2587 176.991 72.634C176.573 73.9847 176.365 75.3968 176.365 76.8703C176.365 78.3438 176.573 79.7682 176.991 81.1434C177.433 82.4942 178.12 83.5993 179.054 84.4588C179.987 85.3184 181.166 85.7481 182.59 85.7481ZM182.59 63.5351C185.144 63.5351 187.244 64.1859 188.889 65.4875C190.559 66.7891 191.787 68.4591 192.573 70.4974C193.359 72.5357 193.752 74.66 193.752 76.8703C193.752 79.0805 193.359 81.2048 192.573 83.2432C191.787 85.2815 190.559 86.9515 188.889 88.2531C187.244 89.5547 185.144 90.2055 182.59 90.2055C180.036 90.2055 177.924 89.5547 176.254 88.2531C174.584 86.9515 173.356 85.2815 172.57 83.2432C171.809 81.2048 171.428 79.0805 171.428 76.8703C171.428 74.66 171.809 72.5357 172.57 70.4974C173.356 68.4591 174.584 66.7891 176.254 65.4875C177.924 64.1859 180.036 63.5351 182.59 63.5351ZM207.772 85.7481C209.196 85.7481 210.363 85.3184 211.272 84.4588C212.205 83.5993 212.892 82.4942 213.334 81.1434C213.777 79.7682 213.998 78.3438 213.998 76.8703C213.998 75.3968 213.777 73.9847 213.334 72.634C212.892 71.2587 212.205 70.1413 211.272 69.2818C210.363 68.4222 209.196 67.9924 207.772 67.9924C206.348 67.9924 205.169 68.4222 204.236 69.2818C203.302 70.1413 202.615 71.2587 202.173 72.634C201.755 73.9847 201.546 75.3968 201.546 76.8703C201.546 78.3438 201.755 79.7682 202.173 81.1434C202.615 82.4942 203.302 83.5993 204.236 84.4588C205.169 85.3184 206.348 85.7481 207.772 85.7481ZM207.772 63.5351C210.326 63.5351 212.426 64.1859 214.071 65.4875C215.741 66.7891 216.969 68.4591 217.755 70.4974C218.541 72.5357 218.934 74.66 218.934 76.8703C218.934 79.0805 218.541 81.2048 217.755 83.2432C216.969 85.2815 215.741 86.9515 214.071 88.2531C212.426 89.5547 210.326 90.2055 207.772 90.2055C205.218 90.2055 203.106 89.5547 201.436 88.2531C199.766 86.9515 198.538 85.2815 197.752 83.2432C196.991 81.2048 196.61 79.0805 196.61 76.8703C196.61 74.66 196.991 72.5357 197.752 70.4974C198.538 68.4591 199.766 66.7891 201.436 65.4875C203.106 64.1859 205.218 63.5351 207.772 63.5351ZM232.954 85.7481C234.378 85.7481 235.545 85.3184 236.453 84.4588C237.387 83.5993 238.074 82.4942 238.516 81.1434C238.958 79.7682 239.179 78.3438 239.179 76.8703C239.179 75.3968 238.958 73.9847 238.516 72.634C238.074 71.2587 237.387 70.1413 236.453 69.2818C235.545 68.4222 234.378 67.9924 232.954 67.9924C231.53 67.9924 230.351 68.4222 229.418 69.2818C228.484 70.1413 227.797 71.2587 227.355 72.634C226.937 73.9847 226.728 75.3968 226.728 76.8703C226.728 78.3438 226.937 79.7682 227.355 81.1434C227.797 82.4942 228.484 83.5993 229.418 84.4588C230.351 85.3184 231.53 85.7481 232.954 85.7481ZM232.954 63.5351C235.508 63.5351 237.608 64.1859 239.253 65.4875C240.923 66.7891 242.151 68.4591 242.937 70.4974C243.723 72.5357 244.116 74.66 244.116 76.8703C244.116 79.0805 243.723 81.2048 242.937 83.2432C242.151 85.2815 240.923 86.9515 239.253 88.2531C237.608 89.5547 235.508 90.2055 232.954 90.2055C230.4 90.2055 228.288 89.5547 226.618 88.2531C224.948 86.9515 223.72 85.2815 222.934 83.2432C222.173 81.2048 221.792 79.0805 221.792 76.8703C221.792 74.66 222.173 72.5357 222.934 70.4974C223.72 68.4591 224.948 66.7891 226.618 65.4875C228.288 64.1859 230.4 63.5351 232.954 63.5351ZM257.694 75.3968H263.109V79.4489H257.694V84.8272H253.642V79.4489H248.263V75.3968H253.642V69.9817H257.694V75.3968Z" fill="white"/>
</g>
<path d="M95.4811 134.996V136.275C95.4811 136.445 95.4137 136.607 95.2938 136.727C95.1738 136.847 95.0112 136.915 94.8415 136.915H92.9229V137.874C92.9229 138.404 92.4934 138.833 91.9636 138.833H60.6261C60.0963 138.833 59.6668 138.404 59.6668 137.874V136.915H57.7482C57.5786 136.915 57.4159 136.847 57.296 136.727C57.176 136.607 57.1086 136.445 57.1086 136.275V134.996C57.1086 134.87 57.1462 134.746 57.2165 134.641C57.2868 134.535 57.3867 134.453 57.5036 134.405L76.0503 127.37C76.2069 127.305 76.3828 127.305 76.5394 127.37L95.0861 134.405C95.203 134.453 95.3029 134.535 95.3732 134.641C95.4436 134.746 95.4811 134.87 95.4811 134.996ZM93.5625 159.299H59.0273C57.9676 159.299 57.1086 160.158 57.1086 161.217V162.496C57.1086 162.666 57.176 162.829 57.296 162.949C57.4159 163.068 57.5786 163.136 57.7482 163.136H94.8415C95.0112 163.136 95.1738 163.068 95.2938 162.949C95.4137 162.829 95.4811 162.666 95.4811 162.496V161.217C95.4811 160.158 94.6221 159.299 93.5625 159.299ZM63.504 140.112V155.461H60.6261C60.0963 155.461 59.6668 155.891 59.6668 156.421V158.02H92.9229V156.421C92.9229 155.891 92.4934 155.461 91.9636 155.461H89.0857V140.112H83.9693V155.461H78.853V140.112H73.7367V155.461H68.6204V140.112H63.504Z" fill="white"/>
<path d="M127.176 135.268C128.207 133.991 128.723 132.383 128.723 130.442H133.659V156.229H128.723V140.757C128.723 139.185 128.932 137.712 129.349 136.336H128.723C128.477 137.27 128.072 138.166 127.507 139.026C126.967 139.861 126.255 140.548 125.371 141.089C124.487 141.604 123.492 141.874 122.387 141.899V137.257C124.573 137.208 126.169 136.545 127.176 135.268ZM142.78 151.992C143.345 152.533 143.627 153.171 143.627 153.908C143.627 154.669 143.345 155.32 142.78 155.86C142.24 156.401 141.601 156.671 140.865 156.671C140.054 156.671 139.367 156.401 138.802 155.86C138.237 155.32 137.954 154.669 137.954 153.908C137.954 153.147 138.237 152.496 138.802 151.956C139.367 151.415 140.054 151.145 140.865 151.145C141.601 151.145 142.24 151.428 142.78 151.992ZM141.38 157.886C141.601 157.469 141.687 157.027 141.638 156.56L140.865 151.145C142.486 151.194 143.542 152.042 144.033 153.687C144.524 155.308 144.291 156.941 143.333 158.586C142.375 160.232 140.889 161.14 138.875 161.312V159.728C139.465 159.581 139.981 159.348 140.423 159.028C140.865 158.709 141.184 158.328 141.38 157.886ZM168.05 142.636C168.763 144.06 169.119 145.607 169.119 147.277C169.119 148.824 168.75 150.322 168.014 151.771C167.277 153.196 166.123 154.375 164.551 155.308C162.979 156.216 161.039 156.671 158.731 156.671C156.422 156.671 154.482 156.229 152.91 155.345C151.363 154.461 150.209 153.319 149.448 151.919C148.686 150.519 148.293 149.058 148.269 147.535H153.279C153.352 148.296 153.586 149.033 153.979 149.745C154.396 150.433 154.985 151.022 155.747 151.514C156.533 151.98 157.515 152.213 158.694 152.213C159.922 152.213 160.941 151.956 161.751 151.44C162.586 150.9 163.2 150.224 163.593 149.414C163.986 148.603 164.183 147.756 164.183 146.872C164.183 145.963 163.986 145.092 163.593 144.257C163.2 143.422 162.586 142.746 161.751 142.23C160.941 141.69 159.922 141.42 158.694 141.42C157.564 141.42 156.655 141.617 155.968 142.009C155.28 142.402 154.728 142.881 154.31 143.446H148.453L150.516 130.442H167.13V134.9H154.494L154.31 136.558C154.236 137.343 154.077 138.08 153.831 138.768C153.586 139.431 153.303 139.996 152.984 140.462H153.647C154.089 139.627 154.777 138.977 155.71 138.51C156.643 138.043 157.932 137.81 159.578 137.81C161.665 137.81 163.421 138.252 164.846 139.136C166.27 140.02 167.338 141.187 168.05 142.636ZM183.022 152.213C184.446 152.213 185.613 151.784 186.521 150.924C187.455 150.065 188.142 148.959 188.584 147.609C189.026 146.234 189.247 144.809 189.247 143.336C189.247 141.862 189.026 140.45 188.584 139.099C188.142 137.724 187.455 136.607 186.521 135.747C185.613 134.888 184.446 134.458 183.022 134.458C181.597 134.458 180.419 134.888 179.485 135.747C178.552 136.607 177.865 137.724 177.422 139.099C177.005 140.45 176.796 141.862 176.796 143.336C176.796 144.809 177.005 146.234 177.422 147.609C177.865 148.959 178.552 150.065 179.485 150.924C180.419 151.784 181.597 152.213 183.022 152.213ZM183.022 130C185.576 130 187.676 130.651 189.321 131.953C190.991 133.254 192.219 134.924 193.005 136.963C193.791 139.001 194.184 141.125 194.184 143.336C194.184 145.546 193.791 147.67 193.005 149.709C192.219 151.747 190.991 153.417 189.321 154.718C187.676 156.02 185.576 156.671 183.022 156.671C180.468 156.671 178.356 156.02 176.686 154.718C175.016 153.417 173.788 151.747 173.002 149.709C172.241 147.67 171.86 145.546 171.86 143.336C171.86 141.125 172.241 139.001 173.002 136.963C173.788 134.924 175.016 133.254 176.686 131.953C178.356 130.651 180.468 130 183.022 130ZM208.204 152.213C209.628 152.213 210.795 151.784 211.703 150.924C212.636 150.065 213.324 148.959 213.766 147.609C214.208 146.234 214.429 144.809 214.429 143.336C214.429 141.862 214.208 140.45 213.766 139.099C213.324 137.724 212.636 136.607 211.703 135.747C210.795 134.888 209.628 134.458 208.204 134.458C206.779 134.458 205.601 134.888 204.667 135.747C203.734 136.607 203.046 137.724 202.604 139.099C202.187 140.45 201.978 141.862 201.978 143.336C201.978 144.809 202.187 146.234 202.604 147.609C203.046 148.959 203.734 150.065 204.667 150.924C205.601 151.784 206.779 152.213 208.204 152.213ZM208.204 130C210.758 130 212.857 130.651 214.503 131.953C216.173 133.254 217.401 134.924 218.187 136.963C218.973 139.001 219.365 141.125 219.365 143.336C219.365 145.546 218.973 147.67 218.187 149.709C217.401 151.747 216.173 153.417 214.503 154.718C212.857 156.02 210.758 156.671 208.204 156.671C205.65 156.671 203.538 156.02 201.868 154.718C200.198 153.417 198.97 151.747 198.184 149.709C197.423 147.67 197.042 145.546 197.042 143.336C197.042 141.125 197.423 139.001 198.184 136.963C198.97 134.924 200.198 133.254 201.868 131.953C203.538 130.651 205.65 130 208.204 130ZM232.944 141.862H238.359V145.914H232.944V151.293H228.891V145.914H223.513V141.862H228.891V136.447H232.944V141.862Z" fill="white"/>
<path d="M70.4867 188.709C70.2168 188.749 69.9589 188.848 69.7315 188.999C69.7315 188.999 67.3785 190.479 64.8489 192.081C62.3192 193.681 59.5049 195.444 58.8613 195.801C58.8216 195.818 58.7825 195.837 58.7441 195.857C56.4079 197.298 55.9224 199.653 55.8387 200.974C55.8331 201.035 55.8387 201.086 55.8387 201.151C55.8182 201.645 55.8387 201.963 55.8387 201.963V226.262C55.8387 229.792 59.955 231.49 63.8612 231.49C65.1632 231.49 66.4653 231.28 67.5813 230.908C68.3253 230.536 68.8592 229.792 68.8592 229.048V209.517C68.8592 205.239 69.7892 203.23 72.5793 201.556C73.3233 201.184 81.1245 195.799 81.1245 195.799C81.4965 195.427 81.8796 194.672 81.8796 194.114V193.939C81.8796 193.195 81.5076 192.626 80.9496 192.254C80.3916 191.882 79.6476 191.882 79.0895 192.254C78.9035 192.44 67.5571 200.079 65.139 201.381C62.7209 202.869 60.4647 203.228 59.9067 202.484C59.7337 202.311 59.583 201.781 59.5588 201.264V201.147C59.5607 200.641 59.6909 199.689 60.7214 199.054C61.7667 198.472 64.3615 196.815 66.8838 195.219C67.9496 194.544 68.0817 194.471 68.9168 193.939C69.0268 194.394 69.3038 194.79 69.6927 195.049C70.0817 195.309 70.5541 195.412 71.0158 195.339C71.4776 195.266 71.8949 195.021 72.1846 194.654C72.4743 194.287 72.6152 193.825 72.5793 193.359V190.569C72.5814 190.304 72.5268 190.041 72.4191 189.799C72.3114 189.556 72.1532 189.34 71.955 189.164C71.7569 188.988 71.5234 188.856 71.2701 188.777C71.0169 188.699 70.7498 188.675 70.4867 188.709ZM85.3673 195.219C85.0715 195.268 84.792 195.388 84.5526 195.569C84.5526 195.569 75.189 201.869 73.567 202.949C73.5473 202.969 73.5281 202.989 73.5093 203.009C72.1626 204.019 71.3647 205.22 71.0094 206.32C70.8103 206.94 70.7124 207.588 70.7192 208.239V208.822C70.7165 208.879 70.7165 208.937 70.7192 208.995V231.49C70.7192 235.024 74.7891 237.07 78.5092 237.07C80.1833 237.07 81.6936 236.71 82.8097 235.966C85.0418 234.663 95.8302 226.26 95.8302 226.26C96.3882 225.888 96.7602 225.363 96.7602 224.805V200.624C96.7602 199.694 96.3993 199.136 95.6553 198.764C95.0973 198.392 94.1803 198.567 93.6223 198.939C90.6461 201.171 82.6348 207.473 80.7748 208.589C78.1707 210.077 75.7172 210.449 74.7872 209.519C74.4152 209.147 74.4394 208.797 74.4394 208.239C74.4505 207.919 74.4859 207.644 74.5566 207.425C74.6607 207.101 74.8728 206.703 75.6596 206.089C75.6968 206.059 75.6782 206.061 75.7172 206.031C77.0621 205.133 81.1747 202.33 83.8569 200.507C84.0089 200.915 84.2989 201.256 84.6766 201.472C85.0543 201.688 85.4957 201.765 85.9241 201.689C86.3525 201.613 86.7408 201.389 87.0214 201.057C87.302 200.724 87.4571 200.304 87.4598 199.869V197.079C87.4619 196.814 87.4073 196.551 87.2996 196.309C87.192 196.067 87.0338 195.85 86.8356 195.674C86.6374 195.498 86.4039 195.366 86.1507 195.288C85.8974 195.209 85.6303 195.186 85.3673 195.219ZM93.0401 208.822V212.542L83.7397 219.748V216.027L93.0401 208.822Z" fill="white"/>
<path d="M130.896 220.088C132.272 219.646 133.721 219.425 135.243 219.425H143.09V223.882H123.418V219.977C126.611 217.178 129.779 214.403 132.922 211.652C133.34 211.284 133.622 211.026 133.77 210.879C135.022 209.798 136.005 208.828 136.717 207.968C137.453 207.084 137.822 206.286 137.822 205.574C137.822 204.985 137.638 204.432 137.269 203.916C136.925 203.376 136.385 202.946 135.648 202.627C134.936 202.283 134.028 202.111 132.922 202.111C131.842 202.111 130.933 202.283 130.196 202.627C129.46 202.971 128.919 203.413 128.576 203.953C128.232 204.469 128.06 205.021 128.06 205.611C128.06 205.905 128.06 206.188 128.06 206.458H123.124C123.124 206.188 123.124 205.905 123.124 205.611C123.124 204.309 123.467 203.057 124.155 201.853C124.867 200.625 125.96 199.619 127.434 198.833C128.932 198.047 130.786 197.654 132.996 197.654C135.182 197.654 137.011 198.047 138.485 198.833C139.958 199.619 141.039 200.625 141.727 201.853C142.414 203.057 142.758 204.309 142.758 205.611C142.758 206.912 142.353 208.153 141.542 209.331C140.757 210.51 139.774 211.628 138.595 212.684C136.901 214.206 134.335 216.453 130.896 219.425V220.088ZM151.774 219.646C152.339 220.186 152.621 220.825 152.621 221.561C152.621 222.323 152.339 222.974 151.774 223.514C151.233 224.054 150.595 224.324 149.858 224.324C149.048 224.324 148.36 224.054 147.795 223.514C147.23 222.974 146.948 222.323 146.948 221.561C146.948 220.8 147.23 220.149 147.795 219.609C148.36 219.069 149.048 218.799 149.858 218.799C150.595 218.799 151.233 219.081 151.774 219.646ZM150.374 225.54C150.595 225.122 150.681 224.68 150.632 224.214L149.858 218.799C151.479 218.848 152.535 219.695 153.026 221.34C153.517 222.961 153.284 224.594 152.326 226.24C151.369 227.885 149.883 228.794 147.869 228.966V227.382C148.458 227.234 148.974 227.001 149.416 226.682C149.858 226.363 150.177 225.982 150.374 225.54ZM177.044 210.289C177.756 211.714 178.112 213.261 178.112 214.931C178.112 216.478 177.744 217.976 177.007 219.425C176.27 220.849 175.116 222.028 173.544 222.961C171.973 223.87 170.033 224.324 167.724 224.324C165.416 224.324 163.476 223.882 161.904 222.998C160.357 222.114 159.202 220.972 158.441 219.572C157.68 218.172 157.287 216.711 157.262 215.189H162.272C162.346 215.95 162.579 216.687 162.972 217.399C163.39 218.086 163.979 218.676 164.74 219.167C165.526 219.634 166.508 219.867 167.687 219.867C168.915 219.867 169.934 219.609 170.745 219.093C171.58 218.553 172.194 217.878 172.587 217.067C172.98 216.257 173.176 215.41 173.176 214.525C173.176 213.617 172.98 212.745 172.587 211.91C172.194 211.075 171.58 210.4 170.745 209.884C169.934 209.344 168.915 209.074 167.687 209.074C166.558 209.074 165.649 209.27 164.961 209.663C164.274 210.056 163.721 210.535 163.304 211.1H157.446L159.509 198.096H176.123V202.553H163.488L163.304 204.211C163.23 204.997 163.07 205.734 162.825 206.421C162.579 207.084 162.297 207.649 161.977 208.116H162.641C163.083 207.281 163.77 206.63 164.703 206.163C165.637 205.697 166.926 205.463 168.571 205.463C170.659 205.463 172.415 205.905 173.839 206.79C175.264 207.674 176.332 208.84 177.044 210.289ZM192.015 219.867C193.44 219.867 194.606 219.437 195.515 218.578C196.448 217.718 197.136 216.613 197.578 215.262C198.02 213.887 198.241 212.463 198.241 210.989C198.241 209.516 198.02 208.103 197.578 206.753C197.136 205.377 196.448 204.26 195.515 203.401C194.606 202.541 193.44 202.111 192.015 202.111C190.591 202.111 189.412 202.541 188.479 203.401C187.546 204.26 186.858 205.377 186.416 206.753C185.999 208.103 185.79 209.516 185.79 210.989C185.79 212.463 185.999 213.887 186.416 215.262C186.858 216.613 187.546 217.718 188.479 218.578C189.412 219.437 190.591 219.867 192.015 219.867ZM192.015 197.654C194.569 197.654 196.669 198.305 198.315 199.606C199.985 200.908 201.212 202.578 201.998 204.616C202.784 206.655 203.177 208.779 203.177 210.989C203.177 213.199 202.784 215.324 201.998 217.362C201.212 219.4 199.985 221.07 198.315 222.372C196.669 223.673 194.569 224.324 192.015 224.324C189.461 224.324 187.349 223.673 185.679 222.372C184.009 221.07 182.781 219.4 181.996 217.362C181.234 215.324 180.854 213.199 180.854 210.989C180.854 208.779 181.234 206.655 181.996 204.616C182.781 202.578 184.009 200.908 185.679 199.606C187.349 198.305 189.461 197.654 192.015 197.654ZM217.197 219.867C218.622 219.867 219.788 219.437 220.697 218.578C221.63 217.718 222.318 216.613 222.76 215.262C223.202 213.887 223.423 212.463 223.423 210.989C223.423 209.516 223.202 208.103 222.76 206.753C222.318 205.377 221.63 204.26 220.697 203.401C219.788 202.541 218.622 202.111 217.197 202.111C215.773 202.111 214.594 202.541 213.661 203.401C212.728 204.26 212.04 205.377 211.598 206.753C211.18 208.103 210.972 209.516 210.972 210.989C210.972 212.463 211.18 213.887 211.598 215.262C212.04 216.613 212.728 217.718 213.661 218.578C214.594 219.437 215.773 219.867 217.197 219.867ZM217.197 197.654C219.751 197.654 221.851 198.305 223.496 199.606C225.166 200.908 226.394 202.578 227.18 204.616C227.966 206.655 228.359 208.779 228.359 210.989C228.359 213.199 227.966 215.324 227.18 217.362C226.394 219.4 225.166 221.07 223.496 222.372C221.851 223.673 219.751 224.324 217.197 224.324C214.643 224.324 212.531 223.673 210.861 222.372C209.191 221.07 207.963 219.4 207.177 217.362C206.416 215.324 206.035 213.199 206.035 210.989C206.035 208.779 206.416 206.655 207.177 204.616C207.963 202.578 209.191 200.908 210.861 199.606C212.531 198.305 214.643 197.654 217.197 197.654ZM241.937 209.516H247.352V213.568H241.937V218.946H237.885V213.568H232.507V209.516H237.885V204.1H241.937V209.516Z" fill="white"/>
<defs>
<clipPath id="clip0_52_3">
<rect width="210.489" height="46" fill="white" transform="translate(55.8296 55.7634)"/>
</clipPath>
</defs>
</svg>
