<svg width="70" height="49" viewBox="0 0 70 49" fill="none" xmlns="http://www.w3.org/2000/svg">
<path d="M34.9948 0C34.1091 0 33.2342 0.153095 32.4031 0.448349L1.72947 11.5259C0.690611 11.9086 0.0016832 12.8928 0.0016832 13.9973C0.0016832 15.1017 0.690611 16.0859 1.72947 16.4686L8.06104 18.7541C6.26764 21.5755 5.25065 24.9107 5.25065 28.421V31.4938C5.25065 34.5995 4.06964 37.8035 2.81207 40.3296C2.10127 41.7512 1.29206 43.1509 0.351615 44.4413C0.0016832 44.9115 -0.096735 45.5239 0.100101 46.0816C0.296938 46.6393 0.756223 47.0548 1.32486 47.197L8.32349 48.9467C8.78277 49.0669 9.27486 48.9795 9.67947 48.728C10.0841 48.4764 10.3684 48.0609 10.4559 47.5907C11.3963 42.9103 10.9261 38.7112 10.2262 35.7039C9.87631 34.1511 9.40609 32.5655 8.74997 31.1111V28.421C8.74997 25.1185 9.86537 22.0019 11.8009 19.5087C13.2116 17.8137 15.0378 16.4468 17.1811 15.6048L34.3496 8.85764C35.2463 8.50771 36.2633 8.94512 36.6133 9.84182C36.9632 10.7385 36.5258 11.7555 35.6291 12.1054L18.4606 18.8526C17.1046 19.3884 15.9126 20.2085 14.9394 21.2146L32.3922 27.5134C33.2233 27.8086 34.0981 27.9617 34.9839 27.9617C35.8696 27.9617 36.7445 27.8086 37.5756 27.5134L68.2602 16.4686C69.299 16.0968 69.988 15.1017 69.988 13.9973C69.988 12.8928 69.299 11.9086 68.2602 11.5259L37.5865 0.448349C36.7554 0.153095 35.8806 0 34.9948 0ZM13.9989 41.1169C13.9989 44.9771 23.4033 48.9904 34.9948 48.9904C46.5863 48.9904 55.9907 44.9771 55.9907 41.1169L54.3176 25.2169L38.7675 30.8377C37.5537 31.2751 36.2743 31.4938 34.9948 31.4938C33.7154 31.4938 32.425 31.2751 31.2221 30.8377L15.672 25.2169L13.9989 41.1169Z" fill="#1587AD"/>
</svg>
