<svg width="42" height="43" viewBox="0 0 42 43" fill="none" xmlns="http://www.w3.org/2000/svg">
<g clip-path="url(#clip0_69_706)">
<path d="M15.8938 19.7478C19.7229 19.7478 22.8269 16.6438 22.8269 12.8147C22.8269 8.98566 19.7229 5.88159 15.8938 5.88159C12.0648 5.88159 8.96069 8.98566 8.96069 12.8147C8.96069 16.6438 12.0648 19.7478 15.8938 19.7478Z" stroke="#1E2246" stroke-width="2.59992" stroke-linecap="round" stroke-linejoin="round"/>
<path d="M5.4939 37.0806V33.614C5.4939 31.7753 6.22435 30.0118 7.52456 28.7116C8.82477 27.4114 10.5882 26.6809 12.427 26.6809H19.3601C21.1989 26.6809 22.9624 27.4114 24.2626 28.7116C25.5628 30.0118 26.2933 31.7753 26.2933 33.614V37.0806" stroke="#1E2246" stroke-width="2.59992" stroke-linecap="round" stroke-linejoin="round"/>
<path d="M28.0266 6.10669C29.518 6.48853 30.8398 7.35587 31.7837 8.57195C32.7277 9.78804 33.24 11.2837 33.24 12.8231C33.24 14.3626 32.7277 15.8583 31.7837 17.0743C30.8398 18.2904 29.518 19.1578 28.0266 19.5396" stroke="#1E2246" stroke-width="2.59992" stroke-linecap="round" stroke-linejoin="round"/>
<path d="M36.6932 37.0804V33.6138C36.6844 32.0836 36.1697 30.5993 35.2291 29.3922C34.2885 28.1852 32.9751 27.3232 31.4934 26.9407" stroke="#1E2246" stroke-width="2.59992" stroke-linecap="round" stroke-linejoin="round"/>
</g>
<defs>
<clipPath id="clip0_69_706">
<rect width="41.5987" height="41.5987" fill="white" transform="translate(0.294189 0.681641)"/>
</clipPath>
</defs>
</svg>
