<svg width="56" height="97" viewBox="0 0 56 97" fill="none" xmlns="http://www.w3.org/2000/svg">
<path d="M2.13512 94.8649C0.768005 93.4973 0 91.6428 0 89.7091C0 87.7754 0.768005 85.9209 2.13512 84.5534L38.2326 48.4559L2.13512 12.3584C0.80675 10.9831 0.0717116 9.14098 0.0883268 7.22893C0.104942 5.31688 0.87188 3.48785 2.22395 2.13577C3.57603 0.783699 5.40506 0.0167694 7.31711 0.000152588C9.22915 -0.0164642 11.0712 0.718575 12.4466 2.04694L53.6998 43.3002C55.0669 44.6677 55.8349 46.5222 55.8349 48.4559C55.8349 50.3896 55.0669 52.2441 53.6998 53.6117L12.4466 94.8649C11.0791 96.232 9.22455 97 7.29086 97C5.35717 97 3.50265 96.232 2.13512 94.8649Z" fill="#47706B"/>
</svg>
