<svg width="59" height="59" viewBox="0 0 59 59" fill="none" xmlns="http://www.w3.org/2000/svg">
<mask id="mask0_161_2723" style="mask-type:luminance" maskUnits="userSpaceOnUse" x="0" y="0" width="59" height="59">
<path d="M58.5114 29.5827C58.5114 13.6162 45.568 0.672729 29.6014 0.672729C13.6349 0.672729 0.691406 13.6162 0.691406 29.5827C0.691406 45.5493 13.6349 58.4927 29.6014 58.4927C45.568 58.4927 58.5114 45.5493 58.5114 29.5827Z" fill="white"/>
</mask>
<g mask="url(#mask0_161_2723)">
<path d="M58.5114 0.672729H0.691406V58.4927H58.5114V0.672729Z" fill="#21B6B6"/>
<path d="M53.3045 73.0615L69.125 29.5951C71.3093 23.5936 68.2149 16.9577 62.2135 14.7733L18.7471 -1.04715C12.7456 -3.2315 6.10968 -0.137128 3.92532 5.86433L-11.8952 49.3308C-14.0795 55.3322 -10.9851 61.9681 -4.98368 64.1525L38.4827 79.973C44.4842 82.1573 51.1201 79.0629 53.3045 73.0615Z" fill="#CAF729"/>
<path d="M31.2075 36.0072C31.2075 37.6045 32.0536 39.1365 33.5596 40.266C35.0656 41.3955 37.1082 42.0301 39.2381 42.0301C41.3679 42.0301 43.4105 41.3955 44.9165 40.266C46.4226 39.1365 47.2686 37.6045 47.2686 36.0072" fill="black"/>
<path d="M35.2231 26.3705C35.2231 25.4835 34.6838 24.7644 34.0185 24.7644C33.3533 24.7644 32.814 25.4835 32.814 26.3705C32.814 27.2575 33.3533 27.9766 34.0185 27.9766C34.6838 27.9766 35.2231 27.2575 35.2231 26.3705Z" fill="black"/>
<path d="M44.8599 26.3705C44.8599 25.4835 44.3205 24.7644 43.6553 24.7644C42.99 24.7644 42.4507 25.4835 42.4507 26.3705C42.4507 27.2575 42.99 27.9766 43.6553 27.9766C44.3205 27.9766 44.8599 27.2575 44.8599 26.3705Z" fill="black"/>
</g>
</svg>
